Rokkitt-Thin.ufo
<glyph name="quotedbl" format="1">
  <advance width="514"/>
  <unicode hex="0022"/>
  <outline>
    <contour>
      <point x="185" y="909" type="line"/>
      <point x="204" y="909" type="line"/>
      <point x="215" y="1259" type="line"/>
      <point x="166" y="1259" type="line"/>
    </contour>
    <contour>
      <point x="317" y="909" type="line"/>
      <point x="335" y="909" type="line"/>
      <point x="357" y="1259" type="line"/>
      <point x="308" y="1259" type="line"/>
    </contour>
  </outline>
</glyph>
<glyph name="numbersign" format="1">
  <advance width="917"/>
  <unicode hex="0023"/>
  <outline>
    <contour>
      <point x="269" y="421" type="line"/>
      <point x="617" y="421" type="line"/>
      <point x="645" y="782" type="line"/>
      <point x="298" y="782" type="line"/>
    </contour>
    <contour>
      <point x="196" y="0" type="line"/>
      <point x="226" y="388" type="line"/>
      <point x="56" y="388" type="line"/>
      <point x="59" y="421" type="line"/>
      <point x="227" y="421" type="line"/>
      <point x="253" y="782" type="line"/>
      <point x="96" y="782" type="line"/>
      <point x="98" y="815" type="line"/>
      <point x="252" y="815" type="line"/>
      <point x="276" y="1147" type="line"/>
      <point x="321" y="1147" type="line"/>
      <point x="296" y="815" type="line"/>
      <point x="644" y="815" type="line"/>
      <point x="668" y="1147" type="line"/>
      <point x="709" y="1147" type="line"/>
      <point x="686" y="815" type="line"/>
      <point x="865" y="815" type="line"/>
      <point x="863" y="782" type="line"/>
      <point x="687" y="782" type="line"/>
      <point x="659" y="421" type="line"/>
      <point x="826" y="421" type="line"/>
      <point x="825" y="388" type="line"/>
      <point x="658" y="388" type="line"/>
      <point x="629" y="0" type="line"/>
      <point x="586" y="0" type="line"/>
      <point x="617" y="388" type="line"/>
      <point x="270" y="388" type="line"/>
      <point x="241" y="0" type="line"/>
    </contour>
  </outline>
</glyph>
<glyph name="quotesingle" format="1">
  <advance width="239"/>
  <unicode hex="0027"/>
  <outline>
    <contour>
      <point x="118" y="909" type="line"/>
      <point x="137" y="909" type="line"/>
      <point x="148" y="1259" type="line"/>
      <point x="99" y="1259" type="line"/>
    </contour>
  </outline>
</glyph>
<glyph name="parenright" format="1">
  <advance width="501"/>
  <unicode hex="0029"/>
  <outline>
    <contour>
      <point x="84" y="-114" type="line"/>
      <point x="336" y="-28"/>
      <point x="462" y="250"/>
      <point x="462" y="529" type="curve" smooth="yes"/>
      <point x="462" y="807"/>
      <point x="336" y="1086"/>
      <point x="84" y="1174" type="curve"/>
      <point x="82" y="1149" type="line"/>
      <point x="306" y="1057"/>
      <point x="419" y="794"/>
      <point x="419" y="531" type="curve" smooth="yes"/>
      <point x="419" y="268"/>
      <point x="306" y="5"/>
      <point x="82" y="-88" type="curve"/>
    </contour>
  </outline>
</glyph>
<glyph name="asterisk" format="1">
  <advance width="941"/>
  <unicode hex="002A"/>
  <outline>
    <contour>
      <point x="240" y="417" type="line"/>
      <point x="471" y="765" type="line"/>
      <point x="700" y="417" type="line"/>
      <point x="765" y="466" type="line"/>
      <point x="493" y="788" type="line"/>
      <point x="896" y="920" type="line"/>
      <point x="868" y="992" type="line"/>
      <point x="488" y="817" type="line"/>
      <point x="515" y="1236" type="line"/>
      <point x="426" y="1236" type="line"/>
      <point x="454" y="817" type="line"/>
      <point x="72" y="992" type="line"/>
      <point x="44" y="920" type="line"/>
      <point x="447" y="788" type="line"/>
      <point x="176" y="466" type="line"/>
    </contour>
  </outline>
</glyph>
<glyph name="hyphen" format="1">
  <advance width="915"/>
  <unicode hex="002D"/>
  <outline>
    <contour>
      <point x="195" y="437" type="line"/>
      <point x="718" y="437" type="line"/>
      <point x="718" y="471" type="line"/>
      <point x="195" y="471" type="line"/>
    </contour>
  </outline>
</glyph>
<glyph name="one" format="1">
  <advance width="559"/>
  <unicode hex="0031"/>
  <outline>
    <contour>
      <point x="126" y="0" type="line"/>
      <point x="494" y="0" type="line"/>
      <point x="494" y="34" type="line"/>
      <point x="334" y="34" type="line"/>
      <point x="334" y="1154" type="line"/>
      <point x="133" y="1091" type="line"/>
      <point x="147" y="1058" type="line"/>
      <point x="290" y="1104" type="line"/>
      <point x="290" y="34" type="line"/>
      <point x="126" y="34" type="line"/>
    </contour>
  </outline>
</glyph>
<glyph name="three" format="1">
  <advance width="964"/>
  <unicode hex="0033"/>
  <outline>
    <contour>
      <point x="469" y="-20" type="curve" smooth="yes"/>
      <point x="716" y="-20"/>
      <point x="853" y="105"/>
      <point x="853" y="329" type="curve" smooth="yes"/>
      <point x="853" y="487"/>
      <point x="748" y="586"/>
      <point x="560" y="606" type="curve"/>
      <point x="742" y="624"/>
      <point x="843" y="720"/>
      <point x="843" y="875" type="curve" smooth="yes"/>
      <point x="843" y="1067"/>
      <point x="705" y="1174"/>
      <point x="456" y="1174" type="curve" smooth="yes"/>
      <point x="278" y="1174"/>
      <point x="149" y="1091"/>
      <point x="95" y="943" type="curve"/>
      <point x="127" y="929" type="line"/>
      <point x="182" y="1063"/>
      <point x="300" y="1138"/>
      <point x="456" y="1138" type="curve" smooth="yes"/>
      <point x="678" y="1138"/>
      <point x="801" y="1044"/>
      <point x="801" y="875" type="curve" smooth="yes"/>
      <point x="801" y="714"/>
      <point x="665" y="624"/>
      <point x="419" y="624" type="curve"/>
      <point x="419" y="590" type="line"/>
      <point x="671" y="590"/>
      <point x="811" y="497"/>
      <point x="811" y="329" type="curve" smooth="yes"/>
      <point x="811" y="128"/>
      <point x="689" y="16"/>
      <point x="469" y="16" type="curve" smooth="yes"/>
      <point x="318" y="16"/>
      <point x="198" y="90"/>
      <point x="132" y="224" type="curve"/>
      <point x="100" y="200" type="line"/>
      <point x="163" y="59"/>
      <point x="295" y="-20"/>
    </contour>
  </outline>
</glyph>
<glyph name="four" format="1">
  <advance width="965"/>
  <unicode hex="0034"/>
  <outline>
    <contour>
      <point x="442" y="0" type="line"/>
      <point x="788" y="0" type="line"/>
      <point x="788" y="45" type="line"/>
      <point x="644" y="45" type="line"/>
      <point x="644" y="366" type="line"/>
      <point x="860" y="366" type="line"/>
      <point x="860" y="411" type="line"/>
      <point x="644" y="411" type="line"/>
      <point x="644" y="1152" type="line"/>
      <point x="577" y="1152" type="line"/>
      <point x="105" y="417" type="line"/>
      <point x="115" y="366" type="line"/>
      <point x="586" y="366" type="line"/>
      <point x="586" y="45" type="line"/>
      <point x="442" y="45" type="line"/>
    </contour>
    <contour>
      <point x="165" y="411" type="line"/>
      <point x="586" y="1083" type="line"/>
      <point x="586" y="411" type="line"/>
    </contour>
  </outline>
</glyph>
<glyph name="six" format="1">
  <advance width="845"/>
  <unicode hex="0036"/>
  <outline>
    <contour>
      <point x="416" y="-22" type="curve" smooth="yes"/>
      <point x="644" y="-22"/>
      <point x="785" y="114"/>
      <point x="785" y="328" type="curve" smooth="yes"/>
      <point x="785" y="539"/>
      <point x="644" y="673"/>
      <point x="429" y="673" type="curve" smooth="yes"/>
      <point x="357" y="673"/>
      <point x="245" y="641"/>
      <point x="190" y="583" type="curve"/>
      <point x="563" y="1202" type="line"/>
      <point x="509" y="1231" type="line"/>
      <point x="147" y="613" type="line" smooth="yes"/>
      <point x="110" y="553"/>
      <point x="59" y="448"/>
      <point x="59" y="313" type="curve" smooth="yes"/>
      <point x="59" y="116"/>
      <point x="208" y="-22"/>
    </contour>
    <contour>
      <point x="417" y="22" type="curve" smooth="yes"/>
      <point x="239" y="22"/>
      <point x="118" y="144"/>
      <point x="118" y="314" type="curve" smooth="yes"/>
      <point x="118" y="515"/>
      <point x="271" y="629"/>
      <point x="424" y="629" type="curve" smooth="yes"/>
      <point x="611" y="629"/>
      <point x="728" y="512"/>
      <point x="728" y="326" type="curve" smooth="yes"/>
      <point x="728" y="141"/>
      <point x="609" y="22"/>
    </contour>
  </outline>
</glyph>
<glyph name="seven" format="1">
  <advance width="964"/>
  <unicode hex="0037"/>
  <outline>
    <contour>
      <point x="427" y="0" type="curve"/>
      <point x="470" y="0" type="line"/>
      <point x="470" y="0"/>
      <point x="688" y="691"/>
      <point x="849" y="1119" type="curve"/>
      <point x="849" y="1152" type="line"/>
      <point x="125" y="1152" type="line"/>
      <point x="125" y="852" type="line"/>
      <point x="169" y="852" type="line"/>
      <point x="169" y="1118" type="line"/>
      <point x="803" y="1118" type="line"/>
      <point x="580" y="507"/>
      <point x="427" y="0"/>
    </contour>
  </outline>
</glyph>
<glyph name="eight" format="1">
  <advance width="979"/>
  <unicode hex="0038"/>
  <outline>
    <contour>
      <point x="489" y="-22" type="curve" smooth="yes"/>
      <point x="722" y="-22"/>
      <point x="866" y="103"/>
      <point x="866" y="296" type="curve" smooth="yes"/>
      <point x="866" y="455"/>
      <point x="777" y="571"/>
      <point x="612" y="603" type="curve"/>
      <point x="762" y="629"/>
      <point x="828" y="746"/>
      <point x="828" y="885" type="curve" smooth="yes"/>
      <point x="828" y="1063"/>
      <point x="697" y="1175"/>
      <point x="490" y="1174" type="curve" smooth="yes"/>
      <point x="283" y="1175"/>
      <point x="152" y="1062"/>
      <point x="152" y="885" type="curve" smooth="yes"/>
      <point x="152" y="750"/>
      <point x="210" y="662"/>
      <point x="359" y="613" type="curve"/>
      <point x="190" y="588"/>
      <point x="113" y="454"/>
      <point x="113" y="296" type="curve" smooth="yes"/>
      <point x="113" y="103"/>
      <point x="256" y="-22"/>
    </contour>
    <contour>
      <point x="489" y="25" type="curve" smooth="yes"/>
      <point x="295" y="25"/>
      <point x="172" y="131"/>
      <point x="172" y="297" type="curve" smooth="yes"/>
      <point x="172" y="470"/>
      <point x="253" y="567"/>
      <point x="411" y="591" type="curve"/>
      <point x="709" y="575"/>
      <point x="806" y="472"/>
      <point x="806" y="297" type="curve" smooth="yes"/>
      <point x="806" y="130"/>
      <point x="684" y="25"/>
    </contour>
    <contour>
      <point x="582" y="624" type="curve"/>
      <point x="311" y="635"/>
      <point x="211" y="723"/>
      <point x="211" y="883" type="curve" smooth="yes"/>
      <point x="211" y="1033"/>
      <point x="318" y="1127"/>
      <point x="490" y="1127" type="curve" smooth="yes"/>
      <point x="663" y="1127"/>
      <point x="770" y="1032"/>
      <point x="770" y="883" type="curve" smooth="yes"/>
      <point x="770" y="717"/>
      <point x="699" y="658"/>
    </contour>
  </outline>
</glyph>
<glyph name="colon" format="1">
  <advance width="453"/>
  <unicode hex="003A"/>
  <outline>
    <contour>
      <point x="194" y="272" type="line"/>
      <point x="267" y="272" type="line"/>
      <point x="267" y="355" type="line"/>
      <point x="194" y="355" type="line"/>
    </contour>
    <contour>
      <point x="194" y="729" type="line"/>
      <point x="267" y="729" type="line"/>
      <point x="267" y="813" type="line"/>
      <point x="194" y="813" type="line"/>
    </contour>
  </outline>
</glyph>
<glyph name="semicolon" format="1">
  <advance width="294"/>
  <unicode hex="003B"/>
  <outline>
    <contour>
      <point x="78" y="121" type="line"/>
      <point x="156" y="122"/>
      <point x="177" y="199"/>
      <point x="177" y="270" type="curve"/>
      <point x="177" y="358" type="line"/>
      <point x="92" y="358" type="line"/>
      <point x="92" y="274" type="line"/>
      <point x="129" y="274" type="line"/>
      <point x="129" y="197"/>
      <point x="135" y="172"/>
      <point x="78" y="150" type="curve"/>
    </contour>
    <contour>
      <point x="100" y="729" type="line"/>
      <point x="173" y="729" type="line"/>
      <point x="173" y="813" type="line"/>
      <point x="100" y="813" type="line"/>
    </contour>
  </outline>
</glyph>
<glyph name="greater" format="1">
  <advance width="914"/>
  <unicode hex="003E"/>
  <outline>
    <contour>
      <point x="142" y="-81" type="line"/>
      <point x="958" y="553" type="line"/>
      <point x="958" y="584" type="line"/>
      <point x="142" y="1226" type="line"/>
      <point x="142" y="1159" type="line"/>
      <point x="891" y="569" type="line"/>
      <point x="142" y="-18" type="line"/>
    </contour>
  </outline>
</glyph>
<glyph name="question" format="1">
  <advance width="629"/>
  <unicode hex="003F"/>
  <outline>
    <contour>
      <point x="268" y="279" type="curve"/>
      <point x="288" y="279" type="line"/>
      <point x="352" y="690"/>
      <point x="607" y="619"/>
      <point x="607" y="907" type="curve" smooth="yes"/>
      <point x="607" y="1071"/>
      <point x="499" y="1174"/>
      <point x="307" y="1174" type="curve" smooth="yes"/>
      <point x="137" y="1174"/>
      <point x="24" y="1115"/>
      <point x="7" y="949" type="curve"/>
      <point x="37" y="949" type="line"/>
      <point x="68" y="1094"/>
      <point x="153" y="1138"/>
      <point x="307" y="1138" type="curve" smooth="yes"/>
      <point x="477" y="1138"/>
      <point x="571" y="1049"/>
      <point x="571" y="907" type="curve" smooth="yes"/>
      <point x="571" y="640"/>
      <point x="308" y="706"/>
    </contour>
    <contour>
      <point x="275" y="-22" type="curve" smooth="yes"/>
      <point x="305" y="-22"/>
      <point x="326" y="-3"/>
      <point x="326" y="24" type="curve" smooth="yes"/>
      <point x="326" y="50"/>
      <point x="305" y="69"/>
      <point x="275" y="69" type="curve"/>
      <point x="247" y="69"/>
      <point x="227" y="50"/>
      <point x="227" y="24" type="curve" smooth="yes"/>
      <point x="227" y="-3"/>
      <point x="247" y="-22"/>
    </contour>
  </outline>
</glyph>
<glyph name="B" format="1">
  <advance width="1315"/>
  <unicode hex="0042"/>
  <outline>
    <contour>
      <point x="329" y="1152" type="line"/>
      <point x="130" y="1152" type="line"/>
      <point x="130" y="1118" type="line"/>
      <point x="306" y="1118" type="line"/>
      <point x="306" y="34" type="line"/>
      <point x="130" y="34" type="line"/>
      <point x="130" y="0" type="line"/>
      <point x="328" y="0" type="line"/>
      <point x="526" y="0" type="line"/>
      <point x="897" y="0" type="line" smooth="yes"/>
      <point x="1074" y="0"/>
      <point x="1195" y="127"/>
      <point x="1195" y="314" type="curve" smooth="yes"/>
      <point x="1195" y="442"/>
      <point x="1143" y="578"/>
      <point x="949" y="609" type="curve"/>
      <point x="1059" y="628"/>
      <point x="1123" y="732"/>
      <point x="1123" y="873" type="curve" smooth="yes"/>
      <point x="1123" y="1060"/>
      <point x="1007" y="1152"/>
      <point x="795" y="1152" type="curve" smooth="yes"/>
      <point x="526" y="1152" type="line"/>
    </contour>
    <contour>
      <point x="526" y="1118" type="line"/>
      <point x="795" y="1118" type="line" smooth="yes"/>
      <point x="981" y="1118"/>
      <point x="1084" y="1043"/>
      <point x="1084" y="873" type="curve" smooth="yes"/>
      <point x="1084" y="731"/>
      <point x="1022" y="623"/>
      <point x="864" y="623" type="curve" smooth="yes"/>
      <point x="350" y="623" type="line"/>
      <point x="350" y="1118" type="line"/>
    </contour>
    <contour>
      <point x="350" y="589" type="line"/>
      <point x="864" y="589" type="line" smooth="yes"/>
      <point x="1065" y="589"/>
      <point x="1153" y="467"/>
      <point x="1153" y="314" type="curve" smooth="yes"/>
      <point x="1153" y="146"/>
      <point x="1050" y="34"/>
      <point x="897" y="34" type="curve" smooth="yes"/>
      <point x="526" y="34" type="line"/>
      <point x="350" y="34" type="line"/>
    </contour>
  </outline>
</glyph>
<glyph name="D" format="1">
  <advance width="1429"/>
  <unicode hex="0044"/>
  <outline>
    <contour>
      <point x="648" y="1152" type="move" name="top"/>
    </contour>
    <contour>
      <point x="809" y="1152" type="curve" smooth="yes"/>
      <point x="123" y="1152" type="line"/>
      <point x="123" y="1107" type="line"/>
      <point x="297" y="1107" type="line"/>
      <point x="297" y="45" type="line"/>
      <point x="123" y="45" type="line"/>
      <point x="123" y="0" type="line"/>
      <point x="815" y="0" type="line" smooth="yes"/>
      <point x="1142" y="0"/>
      <point x="1305" y="311"/>
      <point x="1305" y="573" type="curve" smooth="yes"/>
      <point x="1305" y="830"/>
      <point x="1150" y="1152"/>
    </contour>
    <contour>
      <point x="358" y="1107" type="line"/>
      <point x="810" y="1107" type="line" smooth="yes"/>
      <point x="1099" y="1107"/>
      <point x="1245" y="822"/>
      <point x="1245" y="572" type="curve" smooth="yes"/>
      <point x="1245" y="319"/>
      <point x="1100" y="45"/>
      <point x="804" y="45" type="curve" smooth="yes"/>
      <point x="358" y="45" type="line"/>
    </contour>
  </outline>
</glyph>
<glyph name="G" format="1">
  <advance width="1394"/>
  <unicode hex="0047"/>
  <outline>
    <contour>
      <point x="707" y="-22" type="curve" smooth="yes"/>
      <point x="897" y="-22"/>
      <point x="1245" y="59"/>
      <point x="1245" y="543" type="curve"/>
      <point x="948" y="543" type="line"/>
      <point x="948" y="509" type="line"/>
      <point x="1203" y="509" type="line"/>
      <point x="1198" y="110"/>
      <point x="884" y="14"/>
      <point x="707" y="14" type="curve" smooth="yes"/>
      <point x="372" y="14"/>
      <point x="161" y="233"/>
      <point x="161" y="582" type="curve" smooth="yes"/>
      <point x="161" y="924"/>
      <point x="372" y="1138"/>
      <point x="707" y="1138" type="curve" smooth="yes"/>
      <point x="913" y="1138"/>
      <point x="1091" y="1034"/>
      <point x="1169" y="851" type="curve"/>
      <point x="1201" y="851" type="line"/>
      <point x="1201" y="1152" type="line"/>
      <point x="1157" y="1152" type="line"/>
      <point x="1157" y="945" type="line"/>
      <point x="1066" y="1093"/>
      <point x="892" y="1174"/>
      <point x="707" y="1174" type="curve" smooth="yes"/>
      <point x="346" y="1174"/>
      <point x="119" y="946"/>
      <point x="119" y="582" type="curve" smooth="yes"/>
      <point x="119" y="211"/>
      <point x="346" y="-22"/>
    </contour>
  </outline>
</glyph>
<glyph name="H" format="1">
  <advance width="1506"/>
  <unicode hex="0048"/>
  <outline>
    <contour>
      <point x="130" y="0" type="line"/>
      <point x="526" y="0" type="line"/>
      <point x="526" y="34" type="line"/>
      <point x="350" y="34" type="line"/>
      <point x="350" y="564" type="line"/>
      <point x="1155" y="564" type="line"/>
      <point x="1155" y="34" type="line"/>
      <point x="979" y="34" type="line"/>
      <point x="979" y="0" type="line"/>
      <point x="1375" y="0" type="line"/>
      <point x="1375" y="34" type="line"/>
      <point x="1199" y="34" type="line"/>
      <point x="1199" y="1118" type="line"/>
      <point x="1375" y="1118" type="line"/>
      <point x="1375" y="1152" type="line"/>
      <point x="979" y="1152" type="line"/>
      <point x="979" y="1118" type="line"/>
      <point x="1155" y="1118" type="line"/>
      <point x="1155" y="598" type="line"/>
      <point x="350" y="598" type="line"/>
      <point x="350" y="1118" type="line"/>
      <point x="526" y="1118" type="line"/>
      <point x="526" y="1152" type="line"/>
      <point x="130" y="1152" type="line"/>
      <point x="130" y="1118" type="line"/>
      <point x="306" y="1118" type="line"/>
      <point x="306" y="34" type="line"/>
      <point x="130" y="34" type="line"/>
    </contour>
  </outline>
</glyph>
<glyph name="J" format="1">
  <advance width="568"/>
  <unicode hex="004A"/>
  <outline>
    <contour>
      <point x="353" y="1152" type="move" name="top"/>
    </contour>
    <contour>
      <point x="101" y="-65" type="line"/>
      <point x="213" y="-65" type="line"/>
      <point x="326" y="-65"/>
      <point x="378" y="-34"/>
      <point x="378" y="150" type="curve" smooth="yes"/>
      <point x="378" y="1107" type="line"/>
      <point x="503" y="1107" type="line"/>
      <point x="503" y="1152" type="line"/>
      <point x="183" y="1152" type="line"/>
      <point x="183" y="1107" type="line"/>
      <point x="316" y="1107" type="line"/>
      <point x="316" y="160" type="line" smooth="yes"/>
      <point x="316" y="33"/>
      <point x="305" y="-18"/>
      <point x="224" y="-18" type="curve" smooth="yes"/>
      <point x="101" y="-18" type="line"/>
    </contour>
  </outline>
</glyph>
<glyph name="L" format="1">
  <advance width="1058"/>
  <unicode hex="004C"/>
  <outline>
    <contour>
      <point x="716" y="1152" type="move" name="top"/>
    </contour>
    <contour>
      <point x="533" y="804" type="move" name="caron.alt"/>
    </contour>
    <contour>
      <point x="640" y="0" type="move" name="bot"/>
    </contour>
    <contour>
      <point x="358" y="45" type="line"/>
      <point x="358" y="1107" type="line"/>
      <point x="532" y="1107" type="line"/>
      <point x="532" y="1152" type="line"/>
      <point x="123" y="1152" type="line"/>
      <point x="123" y="1107" type="line"/>
      <point x="297" y="1107" type="line"/>
      <point x="297" y="45" type="line"/>
      <point x="123" y="45" type="line"/>
      <point x="123" y="0" type="line"/>
      <point x="1005" y="0" type="line"/>
      <point x="1005" y="373" type="line"/>
      <point x="955" y="373" type="line"/>
      <point x="955" y="45" type="line"/>
    </contour>
  </outline>
</glyph>
<glyph name="O" format="1">
  <advance width="1456"/>
  <unicode hex="004F"/>
  <outline>
    <contour>
      <point x="727" y="1152" type="move" name="top"/>
    </contour>
    <contour>
      <point x="728" y="-22" type="curve" smooth="yes"/>
      <point x="1147" y="-22"/>
      <point x="1328" y="289"/>
      <point x="1328" y="572" type="curve" smooth="yes"/>
      <point x="1328" y="851"/>
      <point x="1144" y="1174"/>
      <point x="728" y="1174" type="curve" smooth="yes"/>
      <point x="313" y="1174"/>
      <point x="128" y="852"/>
      <point x="128" y="572" type="curve" smooth="yes"/>
      <point x="128" y="291.446"/>
      <point x="308.425" y="-22.0024"/>
      <point x="726.005" y="-22.0024" type="curve" smooth="yes"/>
      <point x="726.669" y="-22.0024"/>
      <point x="727.334" y="-22.0016"/>
    </contour>
    <contour>
      <point x="728" y="14" type="curve" smooth="yes"/>
      <point x="337" y="14"/>
      <point x="170" y="300"/>
      <point x="170" y="572" type="curve" smooth="yes"/>
      <point x="170" y="832"/>
      <point x="341" y="1138"/>
      <point x="728" y="1138" type="curve" smooth="yes"/>
      <point x="1110" y="1138"/>
      <point x="1286" y="832"/>
      <point x="1286" y="572" type="curve" smooth="yes"/>
      <point x="1286" y="310"/>
      <point x="1110" y="14"/>
    </contour>
  </outline>
</glyph>
<glyph name="Q" format="1">
  <advance width="1438"/>
  <unicode hex="0051"/>
  <outline>
    <contour>
      <point x="1328" y="851"/>
      <point x="1144" y="1174"/>
      <point x="728" y="1174" type="curve" smooth="yes"/>
      <point x="313" y="1174"/>
      <point x="128" y="852"/>
      <point x="128" y="572" type="curve" smooth="yes"/>
      <point x="128" y="293.328"/>
      <point x="306.014" y="-17.7985"/>
      <point x="717.635" y="-21.9595" type="curve"/>
      <point x="897.156" y="-162.201"/>
      <point x="955.417" y="-242.444"/>
      <point x="1154" y="-174" type="curve"/>
      <point x="1143" y="-146" type="line"/>
      <point x="970.205" y="-203.28"/>
      <point x="912.245" y="-138.433"/>
      <point x="767.262" y="-21.0661" type="curve"/>
      <point x="1158.33" y="-2.24259"/>
      <point x="1328" y="298.002"/>
      <point x="1328" y="572" type="curve"/>
    </contour>
    <contour>
      <point x="337" y="14.0001"/>
      <point x="170" y="300"/>
      <point x="170" y="572" type="curve" smooth="yes"/>
      <point x="170" y="832"/>
      <point x="341" y="1138"/>
      <point x="728" y="1138" type="curve" smooth="yes"/>
      <point x="1110" y="1138"/>
      <point x="1286" y="832"/>
      <point x="1286" y="572" type="curve" smooth="yes"/>
      <point x="1286" y="310"/>
      <point x="1110" y="14.0001"/>
      <point x="728" y="14.0001" type="curve" smooth="yes"/>
    </contour>
    <contour>
      <point x="727" y="1152" type="move" name="top"/>
    </contour>
    <contour>
      <point x="792" y="0" type="move" name="ogonek"/>
    </contour>
  </outline>
</glyph>
<glyph name="S" format="1">
  <advance width="1133"/>
  <unicode hex="0053"/>
  <outline>
    <contour>
      <point x="580" y="1152" type="move" name="top"/>
    </contour>
    <contour>
      <point x="640" y="0" type="move" name="bot"/>
    </contour>
    <contour>
      <point x="636" y="-22" type="curve" smooth="yes"/>
      <point x="966" y="-22"/>
      <point x="1025" y="188"/>
      <point x="1025" y="295" type="curve" smooth="yes"/>
      <point x="1025" y="563"/>
      <point x="829" y="584"/>
      <point x="610" y="607" type="curve" smooth="yes"/>
      <point x="409" y="627"/>
      <point x="232" y="650"/>
      <point x="232" y="857" type="curve" smooth="yes"/>
      <point x="232" y="1006"/>
      <point x="331" y="1126"/>
      <point x="571" y="1126" type="curve" smooth="yes"/>
      <point x="763" y="1126"/>
      <point x="895" y="1039"/>
      <point x="901" y="954" type="curve" smooth="yes"/>
      <point x="900" y="844" type="line"/>
      <point x="956" y="844" type="line"/>
      <point x="956" y="1153" type="line"/>
      <point x="900" y="1153" type="line"/>
      <point x="900" y="1042" type="line"/>
      <point x="849" y="1129"/>
      <point x="680" y="1174"/>
      <point x="566" y="1174" type="curve" smooth="yes"/>
      <point x="349" y="1174"/>
      <point x="174" y="1074"/>
      <point x="174" y="859" type="curve" smooth="yes"/>
      <point x="174" y="601"/>
      <point x="392" y="573"/>
      <point x="601" y="555" type="curve" smooth="yes"/>
      <point x="822" y="536"/>
      <point x="966" y="504"/>
      <point x="966" y="301" type="curve" smooth="yes"/>
      <point x="966" y="163"/>
      <point x="885" y="26"/>
      <point x="637" y="26" type="curve" smooth="yes"/>
      <point x="397" y="26"/>
      <point x="273" y="92"/>
      <point x="233" y="235" type="curve"/>
      <point x="233" y="387" type="line"/>
      <point x="176" y="387" type="line"/>
      <point x="176" y="-1" type="line"/>
      <point x="233" y="-1" type="line"/>
      <point x="233" y="147" type="line"/>
      <point x="286" y="24"/>
      <point x="438" y="-22"/>
    </contour>
  </outline>
</glyph>
<glyph name="T" format="1">
  <advance width="1147"/>
  <unicode hex="0054"/>
  <outline>
    <contour>
      <point x="567" y="1152" type="move" name="top"/>
    </contour>
    <contour>
      <point x="565" y="0" type="move" name="bot"/>
    </contour>
    <contour>
      <point x="570" y="692" type="move" name="mid"/>
    </contour>
    <contour>
      <point x="52" y="773" type="line"/>
      <point x="104" y="773" type="line"/>
      <point x="104" y="1107" type="line"/>
      <point x="536" y="1107" type="line"/>
      <point x="536" y="45" type="line"/>
      <point x="362" y="45" type="line"/>
      <point x="362" y="0" type="line"/>
      <point x="771" y="0" type="line"/>
      <point x="771" y="45" type="line"/>
      <point x="597" y="45" type="line"/>
      <point x="597" y="1107" type="line"/>
      <point x="1041" y="1107" type="line"/>
      <point x="1041" y="773" type="line"/>
      <point x="1096" y="773" type="line"/>
      <point x="1096" y="1152" type="line"/>
      <point x="52" y="1152" type="line"/>
    </contour>
  </outline>
</glyph>
<glyph name="bracketleft" format="1">
  <advance width="355"/>
  <unicode hex="005B"/>
  <outline>
    <contour>
      <point x="159" y="-134" type="line"/>
      <point x="344" y="-134" type="line"/>
      <point x="344" y="-84" type="line"/>
      <point x="225" y="-84" type="line"/>
      <point x="225" y="1149" type="line"/>
      <point x="344" y="1149" type="line"/>
      <point x="344" y="1197" type="line"/>
      <point x="159" y="1197" type="line"/>
    </contour>
  </outline>
</glyph>
<glyph name="asciicircum" format="1">
  <advance width="911"/>
  <unicode hex="005E"/>
  <outline>
    <contour>
      <point x="70" y="823" type="line"/>
      <point x="113" y="823" type="line"/>
      <point x="463" y="1244" type="line"/>
      <point x="795" y="823" type="line"/>
      <point x="836" y="823" type="line"/>
      <point x="492" y="1289" type="line"/>
      <point x="434" y="1289" type="line"/>
    </contour>
  </outline>
</glyph>
<glyph name="b" format="1">
  <advance width="1037"/>
  <unicode hex="0062"/>
  <outline>
    <contour>
      <point x="599" y="804" type="move" name="top"/>
    </contour>
    <contour>
      <point x="250" y="712.284" type="curve"/>
      <point x="250" y="1174" type="line"/>
      <point x="74" y="1174" type="line"/>
      <point x="74" y="1140" type="line"/>
      <point x="206" y="1140" type="line"/>
      <point x="206" y="34" type="line"/>
      <point x="66" y="34" type="line"/>
      <point x="66" y="-1.46484e-07" type="line"/>
      <point x="250" y="-1.46484e-07" type="line"/>
      <point x="250" y="98.52" type="line"/>
      <point x="330.061" y="23.5537"/>
      <point x="440.378" y="-22"/>
      <point x="545" y="-22" type="curve" smooth="yes"/>
      <point x="805" y="-22"/>
      <point x="970" y="141"/>
      <point x="974" y="400" type="curve" smooth="yes"/>
      <point x="979" y="662"/>
      <point x="820" y="826"/>
      <point x="561" y="826" type="curve" smooth="yes"/>
      <point x="459.453" y="826"/>
      <point x="342.005" y="782.48"/>
    </contour>
    <contour>
      <point x="250" y="139.624" type="curve"/>
      <point x="250" y="674.894" type="line"/>
      <point x="346.015" y="747.281"/>
      <point x="463.633" y="792"/>
      <point x="561" y="792" type="curve" smooth="yes"/>
      <point x="789" y="792"/>
      <point x="932" y="641"/>
      <point x="932" y="400" type="curve" smooth="yes"/>
      <point x="932" y="162"/>
      <point x="783" y="12.0001"/>
      <point x="545" y="12.0001" type="curve" smooth="yes"/>
      <point x="441.958" y="12"/>
      <point x="331.563" y="60.2032"/>
    </contour>
  </outline>
</glyph>
<glyph name="d" format="1">
  <advance width="1011"/>
  <unicode hex="0064"/>
  <outline>
    <contour>
      <point x="838" y="34" type="line"/>
      <point x="838" y="1174" type="line"/>
      <point x="662" y="1174" type="line"/>
      <point x="662" y="1140" type="line"/>
      <point x="794" y="1140" type="line"/>
      <point x="794" y="709.563" type="line"/>
      <point x="706.809" y="778.591"/>
      <point x="577.088" y="826"/>
      <point x="464" y="826" type="curve" smooth="yes"/>
      <point x="226" y="826"/>
      <point x="60" y="648"/>
      <point x="63" y="397" type="curve" smooth="yes"/>
      <point x="66" y="152"/>
      <point x="243" y="-22"/>
      <point x="490" y="-22" type="curve" smooth="yes"/>
      <point x="594.15" y="-22"/>
      <point x="713.063" y="24.7517"/>
      <point x="794" y="93.7418" type="curve"/>
      <point x="794" y="3.30811e-06" type="line"/>
      <point x="977" y="3.30811e-06" type="line"/>
      <point x="977" y="34" type="line"/>
    </contour>
    <contour>
      <point x="265" y="12"/>
      <point x="105" y="172"/>
      <point x="105" y="397" type="curve" smooth="yes"/>
      <point x="105" y="628"/>
      <point x="254" y="792"/>
      <point x="464" y="792" type="curve" smooth="yes"/>
      <point x="575.555" y="792"/>
      <point x="704.668" y="745.178"/>
      <point x="794" y="676" type="curve"/>
      <point x="794" y="131.834" type="line"/>
      <point x="710.823" y="60.6916"/>
      <point x="591.746" y="12"/>
      <point x="490" y="12" type="curve" smooth="yes"/>
    </contour>
    <contour>
      <point x="806" y="969" type="move" name="mid"/>
    </contour>
    <contour>
      <point x="479" y="804" type="move" name="top"/>
    </contour>
    <contour>
      <point x="816" y="804" type="move" name="caron.alt"/>
    </contour>
  </outline>
</glyph>
<glyph name="g" format="1">
  <advance width="1013"/>
  <unicode hex="0067"/>
  <outline>
    <contour>
      <point x="804" y="804" type="line"/>
      <point x="804" y="702.228" type="line"/>
      <point x="716.949" y="774.618"/>
      <point x="581.496" y="824"/>
      <point x="464" y="824" type="curve" smooth="yes"/>
      <point x="226" y="824"/>
      <point x="59.9999" y="650"/>
      <point x="62.9999" y="404" type="curve" smooth="yes"/>
      <point x="65.9999" y="164"/>
      <point x="243" y="-7"/>
      <point x="490" y="-7" type="curve" smooth="yes"/>
      <point x="598.527" y="-7"/>
      <point x="723.085" y="42.8738"/>
      <point x="804" y="115.726" type="curve"/>
      <point x="804" y="-31" type="line" smooth="yes"/>
      <point x="804" y="-220"/>
      <point x="701" y="-340"/>
      <point x="480" y="-340" type="curve" smooth="yes"/>
      <point x="405" y="-340"/>
      <point x="314" y="-326"/>
      <point x="200" y="-294" type="curve"/>
      <point x="193" y="-328" type="line"/>
      <point x="298" y="-355"/>
      <point x="394" y="-374"/>
      <point x="477" y="-374" type="curve" smooth="yes"/>
      <point x="710" y="-374"/>
      <point x="848" y="-261"/>
      <point x="848" y="-17" type="curve" smooth="yes"/>
      <point x="848" y="770" type="line"/>
      <point x="984" y="770" type="line"/>
      <point x="984" y="804" type="line"/>
    </contour>
    <contour>
      <point x="265" y="27"/>
      <point x="105" y="184"/>
      <point x="105" y="404" type="curve" smooth="yes"/>
      <point x="105" y="630"/>
      <point x="254" y="791"/>
      <point x="464" y="791" type="curve" smooth="yes"/>
      <point x="579.79" y="791"/>
      <point x="714.497" y="741.456"/>
      <point x="804" y="669.727" type="curve"/>
      <point x="804" y="152.971" type="line"/>
      <point x="720.57" y="78.8522"/>
      <point x="595.898" y="27"/>
      <point x="490" y="27" type="curve" smooth="yes"/>
    </contour>
    <contour>
      <point x="486" y="804" type="move" name="top"/>
    </contour>
  </outline>
</glyph>
<glyph name="h" format="1">
  <advance width="965"/>
  <unicode hex="0068"/>
  <outline>
    <contour>
      <point x="25" y="0" type="line"/>
      <point x="368" y="0" type="line"/>
      <point x="368" y="34" type="line"/>
      <point x="218" y="34" type="line"/>
      <point x="218" y="678.331" type="line"/>
      <point x="357.452" y="749.588"/>
      <point x="485.6" y="790"/>
      <point x="557" y="790" type="curve" smooth="yes"/>
      <point x="682" y="790"/>
      <point x="761" y="719"/>
      <point x="761" y="605" type="curve" smooth="yes"/>
      <point x="761" y="34" type="line"/>
      <point x="581" y="34" type="line"/>
      <point x="581" y="0" type="line"/>
      <point x="959" y="0" type="line"/>
      <point x="959" y="34" type="line"/>
      <point x="805" y="34" type="line"/>
      <point x="805" y="582" type="line" smooth="yes"/>
      <point x="805" y="732"/>
      <point x="711" y="826"/>
      <point x="562" y="826" type="curve" smooth="yes"/>
      <point x="472.049" y="826"/>
      <point x="341.659" y="783.033"/>
      <point x="218" y="713.339" type="curve"/>
      <point x="218" y="1174" type="line"/>
      <point x="33" y="1174" type="line"/>
      <point x="33" y="1140" type="line"/>
      <point x="174" y="1140" type="line"/>
      <point x="174" y="34" type="line"/>
      <point x="25" y="34" type="line"/>
    </contour>
  </outline>
</glyph>
<glyph name="i" format="1">
  <advance width="537"/>
  <unicode hex="0069"/>
  <outline>
    <contour>
      <point x="283" y="1019" type="curve" smooth="yes"/>
      <point x="311" y="1019"/>
      <point x="330" y="1036"/>
      <point x="330" y="1061" type="curve" smooth="yes"/>
      <point x="330" y="1085"/>
      <point x="311" y="1102"/>
      <point x="283" y="1102" type="curve" smooth="yes"/>
      <point x="257" y="1102"/>
      <point x="239" y="1085"/>
      <point x="239" y="1061" type="curve" smooth="yes"/>
      <point x="239" y="1036"/>
      <point x="257" y="1019"/>
    </contour>
    <contour>
      <point x="96" y="0" type="line"/>
      <point x="497" y="0" type="line"/>
      <point x="497" y="34" type="line"/>
      <point x="321" y="34" type="line"/>
      <point x="321" y="646" type="line"/>
      <point x="321" y="804" type="line"/>
      <point x="99" y="804" type="line"/>
      <point x="99" y="770" type="line"/>
      <point x="277" y="770" type="line"/>
      <point x="277" y="34" type="line"/>
      <point x="96" y="34" type="line"/>
    </contour>
  </outline>
</glyph>
<glyph name="j" format="1">
  <advance width="398"/>
  <unicode hex="006A"/>
  <outline>
    <contour>
      <point x="184" y="1037"/>
      <point x="202" y="1020"/>
      <point x="228" y="1020" type="curve" smooth="yes"/>
      <point x="256" y="1020"/>
      <point x="275" y="1037"/>
      <point x="275" y="1062" type="curve" smooth="yes"/>
      <point x="275" y="1086"/>
      <point x="256" y="1103"/>
      <point x="228" y="1103" type="curve" smooth="yes"/>
      <point x="202" y="1103"/>
      <point x="184" y="1086"/>
      <point x="184" y="1062" type="curve" smooth="yes"/>
    </contour>
    <contour>
      <point x="23" y="-208" type="line"/>
      <point x="23" y="-240" type="line"/>
      <point x="95" y="-240" type="line" smooth="yes"/>
      <point x="293" y="-240"/>
      <point x="268" y="-101"/>
      <point x="268" y="-34" type="curve" smooth="yes"/>
      <point x="268" y="805" type="line"/>
      <point x="64" y="805" type="line"/>
      <point x="64" y="774" type="line"/>
      <point x="221" y="774" type="line"/>
      <point x="221" y="-39" type="line" smooth="yes"/>
      <point x="221" y="-152"/>
      <point x="228" y="-208"/>
      <point x="85" y="-208" type="curve" smooth="yes"/>
    </contour>
    <contour>
      <point x="228" y="805" type="move" name="top"/>
    </contour>
  </outline>
</glyph>
<glyph name="k" format="1">
  <advance width="979"/>
  <unicode hex="006B"/>
  <outline>
    <contour>
      <point x="572" y="998" type="move" name="top"/>
    </contour>
    <contour>
      <point x="533" y="0" type="move" name="bot"/>
    </contour>
    <contour>
      <point x="727" y="0" type="line"/>
      <point x="935" y="0" type="line"/>
      <point x="935" y="45" type="line"/>
      <point x="754" y="45" type="line"/>
      <point x="342" y="419" type="line"/>
      <point x="780" y="759" type="line"/>
      <point x="930" y="759" type="line"/>
      <point x="930" y="804" type="line"/>
      <point x="546" y="804" type="line"/>
      <point x="546" y="759" type="line"/>
      <point x="712" y="759" type="line"/>
      <point x="270" y="424" type="line"/>
      <point x="270" y="1174" type="line"/>
      <point x="69" y="1174" type="line"/>
      <point x="69" y="1129" type="line"/>
      <point x="211" y="1129" type="line"/>
      <point x="211" y="45" type="line"/>
      <point x="62" y="45" type="line"/>
      <point x="62" y="0" type="line"/>
      <point x="418" y="0" type="line"/>
      <point x="418" y="45" type="line"/>
      <point x="270" y="45" type="line"/>
      <point x="270" y="419" type="line"/>
    </contour>
  </outline>
</glyph>
<glyph name="l" format="1">
  <advance width="458"/>
  <unicode hex="006C"/>
  <outline>
    <contour>
      <point x="235" y="1152" type="move" name="top"/>
    </contour>
    <contour>
      <point x="238" y="0" type="move" name="bot"/>
    </contour>
    <contour>
      <point x="57" y="0" type="line"/>
      <point x="413" y="0" type="line"/>
      <point x="413" y="45" type="line"/>
      <point x="265" y="45" type="line"/>
      <point x="265" y="1174" type="line"/>
      <point x="64" y="1174" type="line"/>
      <point x="64" y="1129" type="line"/>
      <point x="206" y="1129" type="line"/>
      <point x="206" y="45" type="line"/>
      <point x="57" y="45" type="line"/>
    </contour>
  </outline>
</glyph>
<glyph name="m" format="1">
  <advance width="1571"/>
  <unicode hex="006D"/>
  <outline>
    <contour>
      <point x="1411" y="34" type="line"/>
      <point x="1411" y="582" type="line" smooth="yes"/>
      <point x="1411" y="732"/>
      <point x="1317" y="826"/>
      <point x="1168" y="826" type="curve" smooth="yes"/>
      <point x="1073.99" y="826"/>
      <point x="935.803" y="779.066"/>
      <point x="807.298" y="703.738" type="curve"/>
      <point x="769.756" y="781.059"/>
      <point x="693.026" y="826"/>
      <point x="590" y="826" type="curve" smooth="yes"/>
      <point x="503.196" y="826"/>
      <point x="378.732" y="785.987"/>
      <point x="259" y="720.554" type="curve"/>
      <point x="259" y="804" type="line"/>
      <point x="37" y="804" type="line"/>
      <point x="37" y="770" type="line"/>
      <point x="215" y="770" type="line"/>
      <point x="215" y="695.215" type="line"/>
      <point x="213" y="694" type="line"/>
      <point x="213" y="661" type="line"/>
      <point x="215" y="662.077" type="line"/>
      <point x="215" y="33.9999" type="line"/>
      <point x="34.0001" y="33.9999" type="line"/>
      <point x="34.0001" y="-0.000104604" type="line"/>
      <point x="435" y="-0.000104604" type="line"/>
      <point x="435" y="33.9999" type="line"/>
      <point x="259" y="33.9999" type="line"/>
      <point x="259" y="684.901" type="line"/>
      <point x="393.382" y="752.067"/>
      <point x="515.825" y="790"/>
      <point x="585" y="790" type="curve" smooth="yes"/>
      <point x="710" y="790"/>
      <point x="789" y="719"/>
      <point x="789" y="605" type="curve" smooth="yes"/>
      <point x="789" y="34" type="line"/>
      <point x="609" y="34" type="line"/>
      <point x="609" y="-5.30591e-06" type="line"/>
      <point x="987" y="-5.30591e-06" type="line"/>
      <point x="987" y="34" type="line"/>
      <point x="833" y="34" type="line"/>
      <point x="833" y="582" type="line" smooth="yes"/>
      <point x="833" y="616.286"/>
      <point x="828.089" y="647.647"/>
      <point x="818.732" y="675.627" type="curve"/>
      <point x="960.219" y="748.564"/>
      <point x="1090.7" y="790"/>
      <point x="1163" y="790" type="curve" smooth="yes"/>
      <point x="1288" y="790"/>
      <point x="1367" y="719"/>
      <point x="1367" y="605" type="curve" smooth="yes"/>
      <point x="1367" y="34" type="line"/>
      <point x="1187" y="34" type="line"/>
      <point x="1187" y="-7.21326e-06" type="line"/>
      <point x="1565" y="-7.21326e-06" type="line"/>
      <point x="1565" y="34" type="line"/>
    </contour>
    <contour>
      <point x="803" y="804" type="move" name="top"/>
    </contour>
  </outline>
</glyph>
<glyph name="n" format="1">
  <advance width="1010"/>
  <unicode hex="006E"/>
  <outline>
    <contour>
      <point x="34" y="0" type="line"/>
      <point x="435" y="0" type="line"/>
      <point x="435" y="34" type="line"/>
      <point x="259" y="34" type="line"/>
      <point x="259" y="646" type="line"/>
      <point x="259" y="676.281" type="line"/>
      <point x="399.998" y="748.812"/>
      <point x="529.918" y="790"/>
      <point x="602" y="790" type="curve" smooth="yes"/>
      <point x="727" y="790"/>
      <point x="806" y="719"/>
      <point x="806" y="605" type="curve" smooth="yes"/>
      <point x="806" y="34" type="line"/>
      <point x="626" y="34" type="line"/>
      <point x="626" y="0" type="line"/>
      <point x="1004" y="0" type="line"/>
      <point x="1004" y="34" type="line"/>
      <point x="850" y="34" type="line"/>
      <point x="850" y="582" type="line" smooth="yes"/>
      <point x="850" y="732"/>
      <point x="756" y="826"/>
      <point x="607" y="826" type="curve" smooth="yes"/>
      <point x="516.078" y="826"/>
      <point x="383.841" y="782.101"/>
      <point x="259" y="711.074" type="curve"/>
      <point x="259" y="804" type="line"/>
      <point x="37" y="804" type="line"/>
      <point x="37" y="770" type="line"/>
      <point x="215" y="770" type="line"/>
      <point x="215" y="34" type="line"/>
      <point x="34" y="34" type="line"/>
    </contour>
  </outline>
</glyph>
<glyph name="o" format="1">
  <advance width="985"/>
  <unicode hex="006F"/>
  <outline>
    <contour>
      <point x="488" y="805" type="move" name="top"/>
    </contour>
    <contour>
      <point x="490" y="-22" type="curve" smooth="yes"/>
      <point x="744" y="-22"/>
      <point x="923" y="156"/>
      <point x="923" y="408" type="curve" smooth="yes"/>
      <point x="923" y="653"/>
      <point x="744" y="826"/>
      <point x="491" y="826" type="curve" smooth="yes"/>
      <point x="239" y="826"/>
      <point x="61" y="652"/>
      <point x="61" y="407" type="curve" smooth="yes"/>
      <point x="61" y="155"/>
      <point x="239" y="-22"/>
    </contour>
    <contour>
      <point x="490" y="24" type="curve" smooth="yes"/>
      <point x="273" y="24"/>
      <point x="120" y="183"/>
      <point x="120" y="407" type="curve" smooth="yes"/>
      <point x="120" y="626"/>
      <point x="273" y="780"/>
      <point x="490" y="780" type="curve" smooth="yes"/>
      <point x="709" y="780"/>
      <point x="865" y="626"/>
      <point x="865" y="408" type="curve" smooth="yes"/>
      <point x="865" y="183"/>
      <point x="709" y="24"/>
    </contour>
  </outline>
</glyph>
<glyph name="p" format="1">
  <advance width="1037"/>
  <unicode hex="0070"/>
  <outline>
    <contour>
      <point x="563" y="805" type="move" name="top"/>
    </contour>
    <contour>
      <point x="249.753" y="712.095" type="curve"/>
      <point x="249" y="804" type="line"/>
      <point x="81" y="804" type="line"/>
      <point x="81" y="770" type="line"/>
      <point x="205" y="770" type="line"/>
      <point x="205" y="-282" type="line"/>
      <point x="65" y="-282" type="line"/>
      <point x="65" y="-316" type="line"/>
      <point x="383" y="-316" type="line"/>
      <point x="383" y="-282" type="line"/>
      <point x="249" y="-282" type="line"/>
      <point x="249.395" y="99.0878" type="line"/>
      <point x="329.505" y="23.7839"/>
      <point x="440.114" y="-22"/>
      <point x="545" y="-22" type="curve" smooth="yes"/>
      <point x="805" y="-22"/>
      <point x="970" y="141"/>
      <point x="974" y="400" type="curve" smooth="yes"/>
      <point x="979" y="662"/>
      <point x="820" y="826"/>
      <point x="561" y="826" type="curve" smooth="yes"/>
      <point x="459.362" y="826"/>
      <point x="341.795" y="782.402"/>
    </contour>
    <contour>
      <point x="249.438" y="140.172" type="curve"/>
      <point x="249.993" y="674.888" type="line"/>
      <point x="346.009" y="747.279"/>
      <point x="463.63" y="792"/>
      <point x="561" y="792" type="curve" smooth="yes"/>
      <point x="789" y="792"/>
      <point x="932" y="641"/>
      <point x="932" y="400" type="curve" smooth="yes"/>
      <point x="932" y="162"/>
      <point x="783" y="12"/>
      <point x="545" y="12" type="curve" smooth="yes"/>
      <point x="441.721" y="12"/>
      <point x="331.056" y="60.4246"/>
    </contour>
  </outline>
</glyph>
<glyph name="q" format="1">
  <advance width="1049"/>
  <unicode hex="0071"/>
  <outline>
    <contour>
      <point x="837" y="-296" type="line"/>
      <point x="837" y="770" type="line"/>
      <point x="966" y="770" type="line"/>
      <point x="966" y="804" type="line"/>
      <point x="799" y="804" type="line"/>
      <point x="794.268" y="709.351" type="line"/>
      <point x="707.075" y="778.494"/>
      <point x="577.203" y="826"/>
      <point x="464" y="826" type="curve" smooth="yes"/>
      <point x="226" y="826"/>
      <point x="60" y="648"/>
      <point x="63" y="397" type="curve" smooth="yes"/>
      <point x="66" y="152"/>
      <point x="243" y="-22"/>
      <point x="490" y="-22" type="curve" smooth="yes"/>
      <point x="593.722" y="-22"/>
      <point x="712.086" y="24.3681"/>
      <point x="793" y="92.8921" type="curve"/>
      <point x="793" y="-296" type="line"/>
      <point x="658" y="-296" type="line"/>
      <point x="658" y="-330" type="line"/>
      <point x="975" y="-330" type="line"/>
      <point x="975" y="-296" type="line"/>
    </contour>
    <contour>
      <point x="105" y="397" type="curve" smooth="yes"/>
      <point x="105" y="628"/>
      <point x="254" y="792"/>
      <point x="464" y="792" type="curve" smooth="yes"/>
      <point x="575.139" y="792"/>
      <point x="703.706" y="745.526"/>
      <point x="793" y="676.772" type="curve"/>
      <point x="793" y="130.981" type="line"/>
      <point x="709.87" y="60.3028"/>
      <point x="591.339" y="12.0001"/>
      <point x="490" y="12.0001" type="curve" smooth="yes"/>
      <point x="265" y="12"/>
      <point x="105" y="172"/>
    </contour>
  </outline>
</glyph>
<glyph name="r" format="1">
  <advance width="775"/>
  <unicode hex="0072"/>
  <outline>
    <contour>
      <point x="497" y="805" type="move" name="top"/>
    </contour>
    <contour>
      <point x="328" y="0" type="move" name="bot"/>
    </contour>
    <contour>
      <point x="113" y="0" type="line"/>
      <point x="521" y="0" type="line"/>
      <point x="521" y="45" type="line"/>
      <point x="350" y="45" type="line"/>
      <point x="351" y="462" type="line" smooth="yes"/>
      <point x="351" y="659"/>
      <point x="450" y="776"/>
      <point x="559" y="776" type="curve" smooth="yes"/>
      <point x="613" y="776"/>
      <point x="649" y="762"/>
      <point x="692" y="738" type="curve"/>
      <point x="705" y="785" type="line"/>
      <point x="659" y="811"/>
      <point x="613" y="824"/>
      <point x="558" y="824" type="curve" smooth="yes"/>
      <point x="477" y="824"/>
      <point x="394" y="777"/>
      <point x="350" y="646" type="curve"/>
      <point x="350" y="804" type="line"/>
      <point x="116" y="804" type="line"/>
      <point x="116" y="759" type="line"/>
      <point x="290" y="759" type="line"/>
      <point x="290" y="45" type="line"/>
      <point x="113" y="45" type="line"/>
    </contour>
  </outline>
</glyph>
<glyph name="w" format="1">
  <advance width="1558"/>
  <unicode hex="0077"/>
  <outline>
    <contour>
      <point x="777" y="804" type="move" name="top"/>
    </contour>
    <contour>
      <point x="440" y="0" type="line"/>
      <point x="513" y="0" type="line"/>
      <point x="776" y="708" type="line"/>
      <point x="1040" y="0" type="line"/>
      <point x="1110" y="0" type="line"/>
      <point x="1373" y="760" type="line"/>
      <point x="1509" y="760" type="line"/>
      <point x="1509" y="805" type="line"/>
      <point x="1175" y="805" type="line"/>
      <point x="1175" y="760" type="line"/>
      <point x="1315" y="760" type="line"/>
      <point x="1074" y="47" type="line"/>
      <point x="807" y="760" type="line"/>
      <point x="955" y="760" type="line"/>
      <point x="955" y="805" type="line"/>
      <point x="597" y="805" type="line"/>
      <point x="597" y="760" type="line"/>
      <point x="742" y="760" type="line"/>
      <point x="479" y="45" type="line"/>
      <point x="226" y="760" type="line"/>
      <point x="380" y="760" type="line"/>
      <point x="380" y="805" type="line"/>
      <point x="33" y="805" type="line"/>
      <point x="33" y="760" type="line"/>
      <point x="165" y="760" type="line"/>
    </contour>
  </outline>
</glyph>
<glyph name="y" format="1">
  <advance width="1071"/>
  <unicode hex="0079"/>
  <outline>
    <contour>
      <point x="566" y="804" type="move" name="top"/>
    </contour>
    <contour>
      <point x="235" y="-250" type="line"/>
      <point x="317" y="-250" type="line" smooth="yes"/>
      <point x="458" y="-250"/>
      <point x="502" y="-220"/>
      <point x="554" y="-96" type="curve" smooth="yes"/>
      <point x="921" y="759" type="line"/>
      <point x="1052" y="759" type="line"/>
      <point x="1052" y="804" type="line"/>
      <point x="690" y="804" type="line"/>
      <point x="690" y="759" type="line"/>
      <point x="860" y="759" type="line"/>
      <point x="575" y="83" type="line"/>
      <point x="275" y="759" type="line"/>
      <point x="420" y="759" type="line"/>
      <point x="420" y="804" type="line"/>
      <point x="47" y="804" type="line"/>
      <point x="47" y="759" type="line"/>
      <point x="213" y="759" type="line"/>
      <point x="528" y="62" type="line"/>
      <point x="565" y="62" type="line"/>
      <point x="501" y="-84" type="line" smooth="yes"/>
      <point x="459" y="-181"/>
      <point x="436" y="-197"/>
      <point x="315" y="-197" type="curve" smooth="yes"/>
      <point x="235" y="-197" type="line"/>
    </contour>
  </outline>
</glyph>
<glyph name="braceleft" format="1">
  <advance width="404"/>
  <unicode hex="007B"/>
  <outline>
    <contour>
      <point x="304" y="1" type="line" smooth="yes"/>
      <point x="163.753" y="1"/>
      <point x="155.874" y="89.2451"/>
      <point x="155.874" y="263.638" type="curve" smooth="yes"/>
      <point x="155.874" y="285.713"/>
      <point x="156" y="309.169"/>
      <point x="156" y="334" type="curve" smooth="yes"/>
      <point x="156" y="512"/>
      <point x="136" y="549"/>
      <point x="8" y="549" type="curve"/>
      <point x="8" y="595" type="line"/>
      <point x="146" y="595"/>
      <point x="156" y="637"/>
      <point x="156" y="834" type="curve" smooth="yes"/>
      <point x="156" y="854.148"/>
      <point x="155.906" y="873.385"/>
      <point x="155.906" y="891.689" type="curve" smooth="yes"/>
      <point x="155.906" y="1052.35"/>
      <point x="163.159" y="1141"/>
      <point x="305" y="1141" type="curve" smooth="yes"/>
      <point x="361" y="1141" type="line"/>
      <point x="361" y="1106" type="line"/>
      <point x="213" y="1106"/>
      <point x="202" y="1092"/>
      <point x="202" y="920" type="curve" smooth="yes"/>
      <point x="202" y="657.537"/>
      <point x="201.741" y="584.012"/>
      <point x="69.2578" y="571.86" type="curve"/>
      <point x="199.656" y="558.763"/>
      <point x="202.003" y="486.719"/>
      <point x="202.003" y="235.855" type="curve" smooth="yes"/>
      <point x="202.003" y="226.488"/>
      <point x="202" y="216.872"/>
      <point x="202" y="207" type="curve" smooth="yes"/>
      <point x="202" y="50"/>
      <point x="220" y="34"/>
      <point x="361" y="34" type="curve"/>
      <point x="361" y="1" type="line"/>
    </contour>
  </outline>
</glyph>
<glyph name="braceright" format="1">
  <advance width="404"/>
  <unicode hex="007D"/>
  <outline>
    <contour>
      <point x="98" y="1" type="curve" smooth="yes"/>
      <point x="41" y="1" type="line"/>
      <point x="41" y="34" type="line"/>
      <point x="182" y="34"/>
      <point x="200" y="50"/>
      <point x="200" y="207" type="curve" smooth="yes"/>
      <point x="200" y="216.872"/>
      <point x="199.997" y="226.488"/>
      <point x="199.997" y="235.855" type="curve" smooth="yes"/>
      <point x="199.997" y="486.719"/>
      <point x="202.344" y="558.764"/>
      <point x="332.742" y="571.86" type="curve"/>
      <point x="200.259" y="584.012"/>
      <point x="200" y="657.537"/>
      <point x="200" y="920" type="curve" smooth="yes"/>
      <point x="200" y="1092"/>
      <point x="189" y="1106"/>
      <point x="41" y="1106" type="curve"/>
      <point x="41" y="1141" type="line"/>
      <point x="97" y="1141" type="line" smooth="yes"/>
      <point x="238.841" y="1141"/>
      <point x="246.094" y="1052.35"/>
      <point x="246.094" y="891.688" type="curve" smooth="yes"/>
      <point x="246.094" y="873.386"/>
      <point x="246" y="854.147"/>
      <point x="246" y="834" type="curve" smooth="yes"/>
      <point x="246" y="637"/>
      <point x="256" y="595"/>
      <point x="394" y="595" type="curve"/>
      <point x="394" y="549" type="line"/>
      <point x="266" y="549"/>
      <point x="246" y="512"/>
      <point x="246" y="334" type="curve" smooth="yes"/>
      <point x="246" y="309.169"/>
      <point x="246.126" y="285.713"/>
      <point x="246.126" y="263.638" type="curve" smooth="yes"/>
      <point x="246.126" y="89.2451"/>
      <point x="238.247" y="1"/>
    </contour>
  </outline>
</glyph>
<glyph name="asciitilde" format="1">
  <advance width="708"/>
  <unicode hex="007E"/>
  <outline>
    <contour>
      <point x="633" y="620" type="curve"/>
      <point x="633" y="576" type="line"/>
      <point x="602" y="537"/>
      <point x="560" y="511"/>
      <point x="500" y="512" type="curve" smooth="yes"/>
      <point x="378" y="514"/>
      <point x="302" y="631"/>
      <point x="215" y="639" type="curve" smooth="yes"/>
      <point x="162" y="644"/>
      <point x="103" y="626"/>
      <point x="63" y="572" type="curve"/>
      <point x="63" y="616" type="line"/>
      <point x="120" y="677"/>
      <point x="170" y="684"/>
      <point x="219" y="680" type="curve" smooth="yes"/>
      <point x="314" y="672"/>
      <point x="403" y="553"/>
      <point x="504" y="552" type="curve" smooth="yes"/>
      <point x="552" y="552"/>
      <point x="611" y="584"/>
    </contour>
  </outline>
</glyph>
<glyph name="exclamdown" format="1">
  <advance width="180"/>
  <unicode hex="00A1"/>
  <outline>
    <contour>
      <point x="84" y="858" type="curve" smooth="yes"/>
      <point x="112" y="858"/>
      <point x="131" y="841"/>
      <point x="131" y="816" type="curve" smooth="yes"/>
      <point x="131" y="792"/>
      <point x="112" y="775"/>
      <point x="84" y="775" type="curve" smooth="yes"/>
      <point x="58" y="775"/>
      <point x="40" y="792"/>
      <point x="40" y="816" type="curve" smooth="yes"/>
      <point x="40" y="841"/>
      <point x="58" y="858"/>
    </contour>
    <contour>
      <point x="77" y="522" type="line"/>
      <point x="91" y="522" type="line"/>
      <point x="107" y="113" type="line"/>
      <point x="107" y="-313" type="line"/>
      <point x="60" y="-313" type="line"/>
      <point x="60" y="113" type="line"/>
    </contour>
  </outline>
</glyph>
<glyph name="sterling" format="1">
  <advance width="1047"/>
  <unicode hex="00A3"/>
  <outline>
    <contour>
      <point x="291" y="-22" type="curve" smooth="yes"/>
      <point x="413" y="-22"/>
      <point x="501" y="51"/>
      <point x="541" y="146" type="curve"/>
      <point x="618" y="52"/>
      <point x="717" y="-4"/>
      <point x="814" y="-4" type="curve" smooth="yes"/>
      <point x="970" y="-4"/>
      <point x="1047" y="103"/>
      <point x="1047" y="243" type="curve" smooth="yes"/>
      <point x="1047" y="258"/>
      <point x="1046" y="272"/>
      <point x="1044" y="287" type="curve"/>
      <point x="1012" y="287" type="line"/>
      <point x="1012" y="138"/>
      <point x="955" y="32"/>
      <point x="812" y="32" type="curve" smooth="yes"/>
      <point x="722" y="32"/>
      <point x="619" y="99"/>
      <point x="555" y="182" type="curve"/>
      <point x="588" y="284"/>
      <point x="595" y="397"/>
      <point x="532" y="562" type="curve"/>
      <point x="911" y="562" type="line"/>
      <point x="911" y="596" type="line"/>
      <point x="516" y="596" type="line"/>
      <point x="452" y="719"/>
      <point x="376" y="824"/>
      <point x="376" y="942" type="curve" smooth="yes"/>
      <point x="376" y="1107"/>
      <point x="506" y="1219"/>
      <point x="675" y="1219" type="curve" smooth="yes"/>
      <point x="868" y="1219"/>
      <point x="949" y="1111"/>
      <point x="949" y="968" type="curve"/>
      <point x="988" y="968" type="line"/>
      <point x="988" y="1146"/>
      <point x="882" y="1255"/>
      <point x="675" y="1255" type="curve" smooth="yes"/>
      <point x="485" y="1255"/>
      <point x="332" y="1130"/>
      <point x="332" y="940" type="curve" smooth="yes"/>
      <point x="332" y="831"/>
      <point x="415" y="699"/>
      <point x="469" y="596" type="curve"/>
      <point x="213" y="596" type="line"/>
      <point x="213" y="562" type="line"/>
      <point x="487" y="562" type="line"/>
      <point x="556" y="400"/>
      <point x="548" y="284"/>
      <point x="525" y="212" type="curve"/>
      <point x="480" y="273"/>
      <point x="380" y="325"/>
      <point x="296" y="325" type="curve" smooth="yes"/>
      <point x="162" y="325"/>
      <point x="78" y="256"/>
      <point x="78" y="145" type="curve" smooth="yes"/>
      <point x="78" y="42"/>
      <point x="160" y="-22"/>
    </contour>
    <contour>
      <point x="292" y="14" type="curve" smooth="yes"/>
      <point x="186" y="14"/>
      <point x="120" y="65"/>
      <point x="120" y="145" type="curve" smooth="yes"/>
      <point x="120" y="233"/>
      <point x="188" y="289"/>
      <point x="297" y="289" type="curve" smooth="yes"/>
      <point x="364" y="289"/>
      <point x="456" y="241"/>
      <point x="511" y="173" type="curve"/>
      <point x="488" y="74"/>
      <point x="380" y="14"/>
    </contour>
  </outline>
</glyph>
<glyph name="currency" format="1">
  <advance width="1124"/>
  <unicode hex="00A4"/>
  <outline>
    <contour>
      <point x="925" y="605" type="line"/>
      <point x="970" y="648" type="line"/>
      <point x="857" y="758" type="line"/>
      <point x="924" y="855"/>
      <point x="958" y="957"/>
      <point x="958" y="1055" type="curve" smooth="yes"/>
      <point x="958" y="1154"/>
      <point x="924" y="1256"/>
      <point x="856" y="1348" type="curve"/>
      <point x="970" y="1459" type="line"/>
      <point x="925" y="1501" type="line"/>
      <point x="824" y="1388" type="line"/>
      <point x="727" y="1439"/>
      <point x="639" y="1466"/>
      <point x="555" y="1466" type="curve" smooth="yes"/>
      <point x="476" y="1466"/>
      <point x="394" y="1441"/>
      <point x="308" y="1390" type="curve"/>
      <point x="206" y="1500" type="line"/>
      <point x="154" y="1459" type="line"/>
      <point x="265" y="1350" type="line"/>
      <point x="192" y="1263"/>
      <point x="156" y="1151"/>
      <point x="156" y="1046" type="curve" smooth="yes"/>
      <point x="156" y="941"/>
      <point x="192" y="835"/>
      <point x="264" y="756" type="curve"/>
      <point x="154" y="648" type="line"/>
      <point x="206" y="606" type="line"/>
      <point x="307" y="716" type="line"/>
      <point x="396" y="664"/>
      <point x="480" y="640"/>
      <point x="560" y="640" type="curve" smooth="yes"/>
      <point x="646" y="640"/>
      <point x="733" y="666"/>
      <point x="825" y="718" type="curve"/>
    </contour>
    <contour>
      <point x="557" y="687" type="curve" smooth="yes"/>
      <point x="387" y="687"/>
      <point x="201" y="805"/>
      <point x="201" y="1054" type="curve" smooth="yes"/>
      <point x="201" y="1302"/>
      <point x="389" y="1420"/>
      <point x="558" y="1420" type="curve" smooth="yes"/>
      <point x="728" y="1420"/>
      <point x="921" y="1308"/>
      <point x="921" y="1054" type="curve" smooth="yes"/>
      <point x="921" y="800"/>
      <point x="730" y="687"/>
    </contour>
  </outline>
</glyph>
<glyph name="brokenbar" format="1">
  <advance width="423"/>
  <unicode hex="00A6"/>
  <outline>
    <contour>
      <point x="183" y="-46" type="line"/>
      <point x="238" y="-46" type="line"/>
      <point x="238" y="522" type="line"/>
      <point x="183" y="522" type="line"/>
    </contour>
    <contour>
      <point x="183" y="720" type="line"/>
      <point x="238" y="720" type="line"/>
      <point x="238" y="1288" type="line"/>
      <point x="183" y="1288" type="line"/>
    </contour>
  </outline>
</glyph>
<glyph name="section" format="1">
  <advance width="954"/>
  <unicode hex="00A7"/>
  <outline>
    <contour>
      <point x="505" y="-131" type="curve" smooth="yes"/>
      <point x="694" y="-131"/>
      <point x="780" y="-41"/>
      <point x="780" y="99" type="curve" smooth="yes"/>
      <point x="780" y="183"/>
      <point x="755" y="222"/>
      <point x="720" y="257" type="curve"/>
      <point x="795" y="306"/>
      <point x="831" y="385"/>
      <point x="828" y="476" type="curve" smooth="yes"/>
      <point x="824" y="587"/>
      <point x="739" y="639"/>
      <point x="531" y="759" type="curve" smooth="yes"/>
      <point x="350" y="863"/>
      <point x="282" y="888"/>
      <point x="282" y="1022" type="curve" smooth="yes"/>
      <point x="282" y="1131"/>
      <point x="356" y="1209"/>
      <point x="506" y="1209" type="curve" smooth="yes"/>
      <point x="660" y="1209"/>
      <point x="717" y="1134"/>
      <point x="729" y="1014" type="curve"/>
      <point x="749" y="1014"/>
      <point x="754" y="1025"/>
      <point x="754" y="1051" type="curve" smooth="yes"/>
      <point x="754" y="1136"/>
      <point x="694" y="1239"/>
      <point x="506" y="1239" type="curve" smooth="yes"/>
      <point x="335" y="1239"/>
      <point x="242" y="1145"/>
      <point x="242" y="1022" type="curve" smooth="yes"/>
      <point x="242" y="919"/>
      <point x="287" y="861"/>
      <point x="366" y="811" type="curve"/>
      <point x="278" y="793"/>
      <point x="206" y="730"/>
      <point x="206" y="629" type="curve" smooth="yes"/>
      <point x="206" y="508"/>
      <point x="265" y="468"/>
      <point x="465" y="366" type="curve" smooth="yes"/>
      <point x="706" y="243"/>
      <point x="743" y="212"/>
      <point x="743" y="97" type="curve" smooth="yes"/>
      <point x="743" y="-24"/>
      <point x="676" y="-101"/>
      <point x="505" y="-101" type="curve" smooth="yes"/>
      <point x="357" y="-101"/>
      <point x="267" y="-73"/>
      <point x="263" y="63" type="curve"/>
      <point x="249" y="63"/>
      <point x="234" y="59"/>
      <point x="234" y="25" type="curve" smooth="yes"/>
      <point x="234" y="-83"/>
      <point x="328" y="-131"/>
    </contour>
    <contour>
      <point x="704" y="273" type="curve"/>
      <point x="653" y="312"/>
      <point x="569" y="354"/>
      <point x="482" y="400" type="curve" smooth="yes"/>
      <point x="308" y="492"/>
      <point x="248" y="516"/>
      <point x="248" y="629" type="curve" smooth="yes"/>
      <point x="248" y="707"/>
      <point x="295" y="770"/>
      <point x="384" y="798" type="curve"/>
      <point x="513" y="727" type="line" smooth="yes"/>
      <point x="724" y="611"/>
      <point x="790" y="558"/>
      <point x="790" y="469" type="curve" smooth="yes"/>
      <point x="790" y="391"/>
      <point x="770" y="325"/>
    </contour>
  </outline>
</glyph>
<glyph name="logicalnot" format="1">
  <advance width="827"/>
  <unicode hex="00AC"/>
  <outline>
    <contour>
      <point x="698" y="304" type="line"/>
      <point x="736" y="304" type="line"/>
      <point x="736" y="639" type="line"/>
      <point x="101" y="639" type="line"/>
      <point x="101" y="603" type="line"/>
      <point x="698" y="603" type="line"/>
    </contour>
  </outline>
</glyph>
<glyph name="uni00AD" format="1">
  <advance width="884"/>
  <unicode hex="00AD"/>
  <outline>
    <contour>
      <point x="183" y="429" type="line"/>
      <point x="701" y="429" type="line"/>
      <point x="701" y="475" type="line"/>
      <point x="183" y="475" type="line"/>
    </contour>
  </outline>
</glyph>
<glyph name="macron" format="1">
  <advance width="316"/>
  <unicode hex="00AF"/>
  <outline>
    <contour>
      <point x="-22" y="918" type="line"/>
      <point x="347" y="918" type="line"/>
      <point x="347" y="950" type="line"/>
      <point x="-22" y="950" type="line"/>
    </contour>
  </outline>
</glyph>
<glyph name="mu" format="1">
  <advance width="1028"/>
  <unicode hex="00B5"/>
  <outline>
    <contour>
      <point x="488" y="804" type="move" name="top"/>
    </contour>
    <contour>
      <point x="984" y="0" type="line"/>
      <point x="984" y="43" type="line"/>
      <point x="833" y="43" type="line"/>
      <point x="833" y="804" type="line"/>
      <point x="623" y="804" type="line"/>
      <point x="623" y="759" type="line"/>
      <point x="773" y="759" type="line"/>
      <point x="773" y="145" type="line"/>
      <point x="671" y="75"/>
      <point x="577" y="25"/>
      <point x="445" y="25" type="curve" smooth="yes"/>
      <point x="310" y="25"/>
      <point x="253" y="116"/>
      <point x="253" y="213" type="curve" smooth="yes"/>
      <point x="253" y="804" type="line"/>
      <point x="37" y="804" type="line"/>
      <point x="37" y="759" type="line"/>
      <point x="193" y="759" type="line"/>
      <point x="193" y="-263" type="line"/>
      <point x="253" y="-263" type="line"/>
      <point x="253" y="57" type="line"/>
      <point x="286" y="14"/>
      <point x="344" y="-22"/>
      <point x="441" y="-22" type="curve" smooth="yes"/>
      <point x="565" y="-22"/>
      <point x="674" y="29"/>
      <point x="776" y="101" type="curve"/>
      <point x="782" y="0" type="line"/>
    </contour>
  </outline>
</glyph>
<glyph name="paragraph" format="1">
  <advance width="973"/>
  <unicode hex="00B6"/>
  <outline>
    <contour>
      <point x="490" y="-17" type="line"/>
      <point x="862" y="-17" type="line"/>
      <point x="862" y="29" type="line"/>
      <point x="722" y="29" type="line"/>
      <point x="722" y="1112" type="line"/>
      <point x="882" y="1112" type="line"/>
      <point x="882" y="1152" type="line"/>
      <point x="418" y="1152" type="line" smooth="yes"/>
      <point x="210" y="1152"/>
      <point x="116" y="1020"/>
      <point x="116" y="916" type="curve" smooth="yes"/>
      <point x="116" y="803"/>
      <point x="210" y="663"/>
      <point x="421" y="664" type="curve" smooth="yes"/>
      <point x="663" y="664" type="line"/>
      <point x="663" y="29" type="line"/>
      <point x="490" y="29" type="line"/>
    </contour>
    <contour>
      <point x="484" y="721" type="line"/>
      <point x="484" y="1112" type="line"/>
      <point x="663" y="1112" type="line"/>
      <point x="663" y="721" type="line"/>
    </contour>
  </outline>
</glyph>
<glyph name="threequarters" format="1">
  <advance width="1497"/>
  <unicode hex="00BE"/>
  <outline>
    <contour>
      <point x="328" y="369" type="curve" smooth="yes"/>
      <point x="497" y="369"/>
      <point x="603" y="451"/>
      <point x="603" y="581" type="curve" smooth="yes"/>
      <point x="603" y="687"/>
      <point x="524" y="764"/>
      <point x="397" y="780" type="curve"/>
      <point x="515" y="793"/>
      <point x="589" y="862"/>
      <point x="589" y="960" type="curve" smooth="yes"/>
      <point x="589" y="1091"/>
      <point x="492" y="1174"/>
      <point x="338" y="1174" type="curve" smooth="yes"/>
      <point x="225" y="1174"/>
      <point x="127" y="1121"/>
      <point x="84" y="1036" type="curve"/>
      <point x="113" y="1017" type="line"/>
      <point x="153" y="1093"/>
      <point x="239" y="1140"/>
      <point x="336" y="1140" type="curve" smooth="yes"/>
      <point x="466" y="1140"/>
      <point x="547" y="1070"/>
      <point x="547" y="959" type="curve" smooth="yes"/>
      <point x="547" y="859"/>
      <point x="454" y="797"/>
      <point x="306" y="797" type="curve" smooth="yes"/>
      <point x="308" y="761" type="line" smooth="yes"/>
      <point x="463" y="761"/>
      <point x="561" y="691"/>
      <point x="561" y="579" type="curve" smooth="yes"/>
      <point x="561" y="472"/>
      <point x="472" y="405"/>
      <point x="329" y="405" type="curve" smooth="yes"/>
      <point x="223" y="405"/>
      <point x="134" y="454"/>
      <point x="98" y="531" type="curve"/>
      <point x="68" y="509" type="line"/>
      <point x="107" y="423"/>
      <point x="207" y="369"/>
    </contour>
    <contour>
      <point x="1230" y="0" type="line"/>
      <point x="1497" y="0" type="line"/>
      <point x="1497" y="34" type="line"/>
      <point x="1388" y="34" type="line"/>
      <point x="1388" y="262" type="line"/>
      <point x="1495" y="262" type="line"/>
      <point x="1495" y="296" type="line"/>
      <point x="1388" y="296" type="line"/>
      <point x="1388" y="804" type="line"/>
      <point x="1339" y="804" type="line"/>
      <point x="969" y="286" type="line"/>
      <point x="982" y="262" type="line"/>
      <point x="1350" y="262" type="line"/>
      <point x="1350" y="34" type="line"/>
      <point x="1230" y="34" type="line"/>
    </contour>
    <contour>
      <point x="481" y="0" type="line"/>
      <point x="523" y="0" type="line"/>
      <point x="1297" y="1152" type="line"/>
      <point x="1258" y="1152" type="line"/>
    </contour>
    <contour>
      <point x="1020" y="296" type="line"/>
      <point x="1350" y="759" type="line"/>
      <point x="1350" y="296" type="line"/>
    </contour>
  </outline>
</glyph>
<glyph name="Thorn" format="1">
  <advance width="1212"/>
  <unicode hex="00DE"/>
  <outline>
    <contour>
      <point x="454" y="340" type="line"/>
      <point x="734" y="340" type="line" smooth="yes"/>
      <point x="936" y="340"/>
      <point x="1054" y="454"/>
      <point x="1054" y="650" type="curve" smooth="yes"/>
      <point x="1054" y="816"/>
      <point x="932" y="914"/>
      <point x="723" y="914" type="curve" smooth="yes"/>
      <point x="316" y="914" type="line"/>
      <point x="316" y="870" type="line"/>
      <point x="723" y="870" type="line" smooth="yes"/>
      <point x="892" y="870"/>
      <point x="992" y="788"/>
      <point x="993" y="649" type="curve" smooth="yes"/>
      <point x="994" y="481"/>
      <point x="898" y="383"/>
      <point x="735" y="383" type="curve" smooth="yes"/>
      <point x="455" y="383" type="line"/>
    </contour>
    <component base="I"/>
  </outline>
</glyph>
<glyph name="thorn" format="1">
  <advance width="1040"/>
  <unicode hex="00FE"/>
  <outline>
    <contour>
      <point x="58" y="-317" type="line"/>
      <point x="391" y="-317" type="line"/>
      <point x="391" y="-273" type="line"/>
      <point x="255" y="-273" type="line"/>
      <point x="255" y="101" type="line"/>
      <point x="335" y="25"/>
      <point x="447" y="-20"/>
      <point x="552" y="-20" type="curve" smooth="yes"/>
      <point x="810" y="-20"/>
      <point x="976" y="146"/>
      <point x="976" y="414" type="curve" smooth="yes"/>
      <point x="976" y="671"/>
      <point x="816" y="828"/>
      <point x="566" y="828" type="curve" smooth="yes"/>
      <point x="464" y="828"/>
      <point x="348" y="785"/>
      <point x="256" y="714" type="curve"/>
      <point x="256" y="1152" type="line"/>
      <point x="44" y="1152" type="line"/>
      <point x="44" y="1104" type="line"/>
      <point x="196" y="1104" type="line"/>
      <point x="196" y="-272" type="line"/>
      <point x="58" y="-272" type="line"/>
    </contour>
    <contour>
      <point x="548" y="26" type="curve" smooth="yes"/>
      <point x="447" y="26"/>
      <point x="336" y="72"/>
      <point x="255" y="151" type="curve"/>
      <point x="256" y="665" type="line"/>
      <point x="350" y="738"/>
      <point x="465" y="782"/>
      <point x="561" y="782" type="curve" smooth="yes"/>
      <point x="779" y="782"/>
      <point x="918" y="637"/>
      <point x="918" y="402" type="curve" smooth="yes"/>
      <point x="918" y="169"/>
      <point x="775" y="26"/>
    </contour>
  </outline>
</glyph>
<glyph name="dcaron" format="1">
  <advance width="1011"/>
  <unicode hex="010F"/>
  <outline>
    <component base="d"/>
    <contour>
      <point x="946" y="914" type="line"/>
      <point x="1037" y="913"/>
      <point x="1043" y="994"/>
      <point x="1043" y="1076" type="curve" smooth="yes"/>
      <point x="1043" y="1174" type="line"/>
      <point x="961" y="1174" type="line"/>
      <point x="961" y="1091" type="line"/>
      <point x="1009" y="1091" type="line"/>
      <point x="1009" y="1006"/>
      <point x="1012" y="936"/>
      <point x="946" y="933" type="curve"/>
    </contour>
  </outline>
</glyph>
<glyph name="dotlessi" format="1">
  <advance width="537"/>
  <unicode hex="0131"/>
  <outline>
    <contour>
      <point x="283" y="804" type="move" name="top"/>
    </contour>
    <contour>
      <point x="96" y="0" type="line"/>
      <point x="497" y="0" type="line"/>
      <point x="497" y="34" type="line"/>
      <point x="321" y="34" type="line"/>
      <point x="321" y="646" type="line"/>
      <point x="321" y="804" type="line"/>
      <point x="99" y="804" type="line"/>
      <point x="99" y="770" type="line"/>
      <point x="277" y="770" type="line"/>
      <point x="277" y="34" type="line"/>
      <point x="96" y="34" type="line"/>
    </contour>
  </outline>
</glyph>
<glyph name="kgreenlandic" format="1">
  <advance width="947"/>
  <unicode hex="0138"/>
  <outline>
    <contour>
      <point x="701" y="0" type="line"/>
      <point x="901" y="0" type="line"/>
      <point x="901" y="45" type="line"/>
      <point x="732" y="45" type="line"/>
      <point x="371" y="410" type="line"/>
      <point x="753" y="759" type="line"/>
      <point x="895" y="759" type="line"/>
      <point x="895" y="804" type="line"/>
      <point x="530" y="804" type="line"/>
      <point x="530" y="759" type="line"/>
      <point x="680" y="759" type="line"/>
      <point x="297" y="411" type="line"/>
    </contour>
    <contour>
      <point x="73" y="0" type="line"/>
      <point x="409" y="0" type="line"/>
      <point x="409" y="45" type="line"/>
      <point x="273" y="45" type="line"/>
      <point x="273" y="804" type="line"/>
      <point x="80" y="804" type="line"/>
      <point x="80" y="759" type="line"/>
      <point x="214" y="759" type="line"/>
      <point x="214" y="45" type="line"/>
      <point x="73" y="45" type="line"/>
    </contour>
  </outline>
</glyph>
<glyph name="Lcaron" format="1">
  <advance width="1055"/>
  <unicode hex="013D"/>
  <outline>
    <component base="L"/>
    <contour>
      <point x="640" y="914" type="line"/>
      <point x="731" y="913"/>
      <point x="737" y="994"/>
      <point x="737" y="1076" type="curve" smooth="yes"/>
      <point x="737" y="1174" type="line"/>
      <point x="655" y="1174" type="line"/>
      <point x="655" y="1091" type="line"/>
      <point x="703" y="1091" type="line"/>
      <point x="703" y="1006"/>
      <point x="706" y="936"/>
      <point x="640" y="933" type="curve"/>
    </contour>
  </outline>
</glyph>
<glyph name="lcaron" format="1">
  <advance width="445"/>
  <unicode hex="013E"/>
  <outline>
    <component base="l"/>
    <contour>
      <point x="328" y="914" type="line"/>
      <point x="419" y="913"/>
      <point x="425" y="994"/>
      <point x="425" y="1076" type="curve" smooth="yes"/>
      <point x="425" y="1174" type="line"/>
      <point x="343" y="1174" type="line"/>
      <point x="343" y="1091" type="line"/>
      <point x="391" y="1091" type="line"/>
      <point x="391" y="1006"/>
      <point x="394" y="936"/>
      <point x="328" y="933" type="curve"/>
    </contour>
  </outline>
</glyph>
<glyph name="Eng" format="1">
  <advance width="1444"/>
  <unicode hex="014A"/>
  <outline>
    <contour>
      <point x="1028" y="1152" type="line"/>
      <point x="1028" y="1107" type="line"/>
      <point x="1181" y="1107" type="line"/>
      <point x="1181" y="86" type="line"/>
      <point x="336" y="1152" type="line"/>
      <point x="132" y="1152" type="line"/>
      <point x="132" y="1107" type="line"/>
      <point x="279" y="1107" type="line"/>
      <point x="279" y="45" type="line"/>
      <point x="132" y="45" type="line"/>
      <point x="132" y="0" type="line"/>
      <point x="486" y="0" type="line"/>
      <point x="486" y="45" type="line"/>
      <point x="335" y="45" type="line"/>
      <point x="335" y="1060" type="line"/>
      <point x="1181" y="-4" type="line"/>
      <point x="1181" y="-189"/>
      <point x="1091" y="-312"/>
      <point x="861" y="-312" type="curve"/>
      <point x="861" y="-360" type="line"/>
      <point x="1094" y="-360"/>
      <point x="1237" y="-250"/>
      <point x="1237" y="-3" type="curve" smooth="yes"/>
      <point x="1237" y="1107" type="line"/>
      <point x="1365" y="1107" type="line"/>
      <point x="1365" y="1152" type="line"/>
    </contour>
  </outline>
</glyph>
<glyph name="eng" format="1">
  <advance width="1010"/>
  <unicode hex="014B"/>
  <outline>
    <contour>
      <point x="34" y="0" type="line"/>
      <point x="435" y="0" type="line"/>
      <point x="435" y="34" type="line"/>
      <point x="259" y="34" type="line"/>
      <point x="259" y="646" type="line"/>
      <point x="259" y="804" type="line"/>
      <point x="37" y="804" type="line"/>
      <point x="37" y="770" type="line"/>
      <point x="215" y="770" type="line"/>
      <point x="215" y="34" type="line"/>
      <point x="34" y="34" type="line"/>
    </contour>
    <contour>
      <point x="479" y="-374" type="line"/>
      <point x="712" y="-374"/>
      <point x="850" y="-261"/>
      <point x="850" y="-17" type="curve" smooth="yes"/>
      <point x="850" y="582" type="line" smooth="yes"/>
      <point x="850" y="732"/>
      <point x="756" y="826"/>
      <point x="607" y="826" type="curve" smooth="yes"/>
      <point x="509" y="826"/>
      <point x="363" y="775"/>
      <point x="230" y="694" type="curve"/>
      <point x="230" y="661" type="line"/>
      <point x="382" y="743"/>
      <point x="525" y="790"/>
      <point x="602" y="790" type="curve" smooth="yes"/>
      <point x="727" y="790"/>
      <point x="806" y="719"/>
      <point x="806" y="605" type="curve" smooth="yes"/>
      <point x="806" y="-31" type="line" smooth="yes"/>
      <point x="806" y="-220"/>
      <point x="703" y="-340"/>
      <point x="482" y="-340" type="curve"/>
    </contour>
  </outline>
</glyph>
<glyph name="OE" format="1">
  <advance width="1962"/>
  <unicode hex="0152"/>
  <outline>
    <contour>
      <point x="785" y="0" type="curve" smooth="yes"/>
      <point x="1826" y="0" type="line"/>
      <point x="1826" y="390" type="line"/>
      <point x="1773" y="390" type="line"/>
      <point x="1773" y="50" type="line"/>
      <point x="1067" y="50" type="line"/>
      <point x="1067" y="540" type="line"/>
      <point x="1538" y="540" type="line"/>
      <point x="1538" y="350" type="line"/>
      <point x="1584" y="350" type="line"/>
      <point x="1584" y="761" type="line"/>
      <point x="1538" y="761" type="line"/>
      <point x="1538" y="589" type="line"/>
      <point x="1068" y="589" type="line"/>
      <point x="1068" y="1102" type="line"/>
      <point x="1746" y="1102" type="line"/>
      <point x="1746" y="786" type="line"/>
      <point x="1799" y="786" type="line"/>
      <point x="1799" y="1152" type="line"/>
      <point x="785" y="1152" type="line" smooth="yes"/>
      <point x="378" y="1152"/>
      <point x="133" y="935"/>
      <point x="132" y="571" type="curve" smooth="yes"/>
      <point x="133" y="213"/>
      <point x="379" y="0"/>
    </contour>
    <contour>
      <point x="787" y="50" type="line"/>
      <point x="419" y="50"/>
      <point x="193" y="247"/>
      <point x="193" y="571" type="curve" smooth="yes"/>
      <point x="193" y="907"/>
      <point x="423" y="1102"/>
      <point x="786" y="1102" type="curve" smooth="yes"/>
      <point x="1006" y="1102" type="line"/>
      <point x="1006" y="50" type="line"/>
    </contour>
  </outline>
</glyph>
<glyph name="tcaron" format="1">
  <advance width="572"/>
  <unicode hex="0165"/>
  <outline>
    <component base="t"/>
    <contour>
      <point x="348" y="1005" type="line"/>
      <point x="439" y="1004"/>
      <point x="445" y="1085"/>
      <point x="445" y="1167" type="curve" smooth="yes"/>
      <point x="445" y="1265" type="line"/>
      <point x="363" y="1265" type="line"/>
      <point x="363" y="1182" type="line"/>
      <point x="411" y="1182" type="line"/>
      <point x="411" y="1097"/>
      <point x="414" y="1027"/>
      <point x="348" y="1024" type="curve"/>
    </contour>
  </outline>
</glyph>
<glyph name="uni0237" format="1">
  <advance width="414"/>
  <unicode hex="0237"/>
  <outline>
    <contour>
      <point x="235" y="804" type="move" name="top"/>
    </contour>
    <contour>
      <point x="21" y="-250" type="line"/>
      <point x="96" y="-250" type="line" smooth="yes"/>
      <point x="301" y="-250"/>
      <point x="282" y="-109"/>
      <point x="282" y="-26" type="curve" smooth="yes"/>
      <point x="282" y="804" type="line"/>
      <point x="50" y="804" type="line"/>
      <point x="50" y="759" type="line"/>
      <point x="222" y="759" type="line"/>
      <point x="222" y="-36" type="line" smooth="yes"/>
      <point x="222" y="-150"/>
      <point x="226" y="-206"/>
      <point x="87" y="-206" type="curve" smooth="yes"/>
      <point x="21" y="-206" type="line"/>
    </contour>
  </outline>
</glyph>
<glyph name="caron" format="1">
  <advance width="375"/>
  <unicode hex="02C7"/>
  <outline>
    <contour>
      <point x="187" y="804" type="move" name="_top"/>
    </contour>
    <contour>
      <point x="163" y="928" type="line"/>
      <point x="203" y="928" type="line"/>
      <point x="375" y="1235" type="line"/>
      <point x="328" y="1235" type="line"/>
      <point x="183" y="974" type="line"/>
      <point x="36" y="1235" type="line"/>
      <point x="-12" y="1235" type="line"/>
    </contour>
  </outline>
</glyph>
<glyph name="hungarumlaut" format="1">
  <advance width="396"/>
  <unicode hex="02DD"/>
  <outline>
    <contour>
      <point x="150" y="804" type="move" name="_top"/>
    </contour>
    <contour>
      <point x="357" y="1286" type="line"/>
      <point x="248" y="989" type="line"/>
      <point x="280" y="989" type="line"/>
      <point x="417" y="1286" type="line"/>
    </contour>
    <contour>
      <point x="163" y="1286" type="line"/>
      <point x="54" y="989" type="line"/>
      <point x="86" y="989" type="line"/>
      <point x="223" y="1286" type="line"/>
    </contour>
  </outline>
</glyph>
<glyph name="uni030F" format="1">
  <advance width="646"/>
  <unicode hex="030F"/>
  <outline>
    <contour>
      <point x="335" y="804" type="move" name="_top"/>
    </contour>
    <contour>
      <point x="205" y="989" type="line"/>
      <point x="236" y="989" type="line"/>
      <point x="128" y="1286" type="line"/>
      <point x="68" y="1286" type="line"/>
    </contour>
    <contour>
      <point x="399" y="989" type="line"/>
      <point x="430" y="989" type="line"/>
      <point x="322" y="1286" type="line"/>
      <point x="262" y="1286" type="line"/>
    </contour>
  </outline>
</glyph>
<glyph name="quoteright" format="1">
  <advance width="419"/>
  <unicode hex="2019"/>
  <outline>
    <contour>
      <point x="174" y="1004" type="line"/>
      <point x="262" y="1005"/>
      <point x="288" y="1081"/>
      <point x="288" y="1161" type="curve" smooth="yes"/>
      <point x="288" y="1261" type="line"/>
      <point x="187" y="1261" type="line"/>
      <point x="187" y="1165" type="line"/>
      <point x="233" y="1165" type="line"/>
      <point x="233" y="1086"/>
      <point x="235" y="1060"/>
      <point x="174" y="1039" type="curve"/>
    </contour>
  </outline>
</glyph>
<glyph name="quotedblleft" format="1">
  <advance width="642"/>
  <unicode hex="201C"/>
  <outline>
    <contour>
      <point x="173" y="1053" type="line"/>
      <point x="263" y="1053" type="line"/>
      <point x="263" y="1137" type="line"/>
      <point x="222" y="1137" type="line"/>
      <point x="222" y="1215"/>
      <point x="217" y="1238"/>
      <point x="277" y="1262" type="curve"/>
      <point x="277" y="1289" type="line"/>
      <point x="196" y="1288"/>
      <point x="173" y="1214"/>
      <point x="173" y="1140" type="curve" smooth="yes"/>
    </contour>
    <contour>
      <point x="356" y="1053" type="line"/>
      <point x="446" y="1053" type="line"/>
      <point x="446" y="1137" type="line"/>
      <point x="405" y="1137" type="line"/>
      <point x="405" y="1215"/>
      <point x="401" y="1238"/>
      <point x="460" y="1262" type="curve"/>
      <point x="460" y="1289" type="line"/>
      <point x="379" y="1287"/>
      <point x="356" y="1214"/>
      <point x="356" y="1140" type="curve" smooth="yes"/>
    </contour>
  </outline>
</glyph>
<glyph name="quotedblbase" format="1">
  <advance width="652"/>
  <unicode hex="201E"/>
  <outline>
    <contour>
      <point x="382" y="-157" type="curve"/>
      <point x="382" y="-130" type="line"/>
      <point x="441" y="-107"/>
      <point x="435" y="-84"/>
      <point x="435" y="-6" type="curve"/>
      <point x="394" y="-6" type="line"/>
      <point x="394" y="78" type="line"/>
      <point x="484" y="78" type="line"/>
      <point x="484" y="-8" type="line" smooth="yes"/>
      <point x="484" y="-81"/>
      <point x="461" y="-156"/>
    </contour>
    <contour>
      <point x="190" y="-157" type="curve"/>
      <point x="190" y="-130" type="line"/>
      <point x="249" y="-107"/>
      <point x="244" y="-83"/>
      <point x="245" y="-6" type="curve"/>
      <point x="202" y="-6" type="line"/>
      <point x="202" y="78" type="line"/>
      <point x="292" y="78" type="line"/>
      <point x="292" y="-8" type="line" smooth="yes"/>
      <point x="292" y="-81"/>
      <point x="270" y="-156"/>
    </contour>
  </outline>
</glyph>
<glyph name="bullet" format="1">
  <advance width="747"/>
  <unicode hex="2022"/>
  <outline>
    <contour>
      <point x="374" y="462" type="curve" smooth="yes"/>
      <point x="513" y="462"/>
      <point x="625" y="569"/>
      <point x="625" y="703" type="curve" smooth="yes"/>
      <point x="625" y="839"/>
      <point x="513" y="944"/>
      <point x="374" y="944" type="curve" smooth="yes"/>
      <point x="233" y="944"/>
      <point x="123" y="838"/>
      <point x="123" y="703" type="curve" smooth="yes"/>
      <point x="123" y="571"/>
      <point x="233" y="462"/>
    </contour>
  </outline>
</glyph>
<glyph name="guilsinglleft" format="1">
  <advance width="405"/>
  <unicode hex="2039"/>
  <outline>
    <contour>
      <point x="270" y="309" type="line"/>
      <point x="299" y="309" type="line"/>
      <point x="86" y="686" type="line"/>
      <point x="299" y="1059" type="line"/>
      <point x="270" y="1059" type="line"/>
      <point x="7" y="686" type="line"/>
    </contour>
  </outline>
</glyph>
<glyph name="fraction" format="1">
  <advance width="374"/>
  <unicode hex="2044"/>
  <outline>
    <contour>
      <point x="-44" y="-28" type="line"/>
      <point x="17" y="-28" type="line"/>
      <point x="407" y="1285" type="line"/>
      <point x="351" y="1285" type="line"/>
    </contour>
  </outline>
</glyph>
<glyph name="uni2113" format="1">
  <advance width="552"/>
  <unicode hex="2113"/>
  <outline>
    <contour>
      <point x="365" y="-12" type="line"/>
      <point x="150" y="-14"/>
      <point x="134" y="55"/>
      <point x="167" y="258" type="curve" smooth="yes"/>
      <point x="319" y="1178" type="line"/>
      <point x="130" y="1178" type="line"/>
      <point x="129" y="1215" type="line"/>
      <point x="355" y="1215" type="line"/>
      <point x="204" y="257" type="line" smooth="yes"/>
      <point x="168" y="28"/>
      <point x="226" y="15"/>
      <point x="374" y="15" type="curve"/>
    </contour>
  </outline>
</glyph>
<glyph name="trademark" format="1">
  <advance width="1581"/>
  <unicode hex="2122"/>
  <outline>
    <contour>
      <point x="269" y="584" type="line"/>
      <point x="269" y="613" type="line"/>
      <point x="341" y="613" type="line"/>
      <point x="341" y="1123" type="line"/>
      <point x="144" y="1123" type="line"/>
      <point x="144" y="960" type="line"/>
      <point x="107" y="960" type="line"/>
      <point x="107" y="1152" type="line"/>
      <point x="615" y="1152" type="line"/>
      <point x="615" y="960" type="line"/>
      <point x="577" y="960" type="line"/>
      <point x="577" y="1123" type="line"/>
      <point x="373" y="1123" type="line"/>
      <point x="373" y="613" type="line"/>
      <point x="446" y="613" type="line"/>
      <point x="446" y="584" type="line"/>
    </contour>
    <contour>
      <point x="776" y="584" type="line"/>
      <point x="776" y="615" type="line"/>
      <point x="846" y="615" type="line"/>
      <point x="846" y="1121" type="line"/>
      <point x="776" y="1121" type="line"/>
      <point x="776" y="1152" type="line"/>
      <point x="882" y="1152" type="line"/>
      <point x="1114" y="717" type="line"/>
      <point x="1333" y="1152" type="line"/>
      <point x="1438" y="1152" type="line"/>
      <point x="1438" y="1121" type="line"/>
      <point x="1369" y="1121" type="line"/>
      <point x="1369" y="615" type="line"/>
      <point x="1438" y="615" type="line"/>
      <point x="1438" y="584" type="line"/>
      <point x="1261" y="584" type="line"/>
      <point x="1261" y="615" type="line"/>
      <point x="1334" y="615" type="line"/>
      <point x="1334" y="1079" type="line"/>
      <point x="1115" y="652" type="line"/>
      <point x="1114" y="652" type="line"/>
      <point x="883" y="1082" type="line"/>
      <point x="883" y="615" type="line"/>
      <point x="958" y="615" type="line"/>
      <point x="958" y="584" type="line"/>
    </contour>
  </outline>
</glyph>
<glyph name="Omega" format="1">
  <advance width="1426"/>
  <unicode hex="2126"/>
  <outline>
    <contour>
      <point x="182" y="0" type="line"/>
      <point x="557" y="0" type="line"/>
      <point x="557" y="48" type="line"/>
      <point x="334" y="182"/>
      <point x="224" y="421"/>
      <point x="224" y="634" type="curve" smooth="yes"/>
      <point x="224" y="893"/>
      <point x="388" y="1126"/>
      <point x="713" y="1126" type="curve" smooth="yes"/>
      <point x="1038" y="1126"/>
      <point x="1202" y="893"/>
      <point x="1202" y="634" type="curve" smooth="yes"/>
      <point x="1202" y="421"/>
      <point x="1092" y="182"/>
      <point x="869" y="48" type="curve"/>
      <point x="869" y="0" type="line"/>
      <point x="1244" y="0" type="line"/>
      <point x="1244" y="45" type="line"/>
      <point x="927" y="45" type="line"/>
      <point x="1152" y="177"/>
      <point x="1261" y="412"/>
      <point x="1261" y="628" type="curve" smooth="yes"/>
      <point x="1261" y="912"/>
      <point x="1073" y="1174"/>
      <point x="713" y="1174" type="curve" smooth="yes"/>
      <point x="354" y="1174"/>
      <point x="165" y="912"/>
      <point x="165" y="628" type="curve" smooth="yes"/>
      <point x="165" y="412"/>
      <point x="274" y="177"/>
      <point x="499" y="45" type="curve"/>
      <point x="182" y="45" type="line"/>
    </contour>
  </outline>
</glyph>
<glyph name="estimated" format="1">
  <advance width="652"/>
  <unicode hex="212E"/>
  <outline>
    <contour>
      <point x="528" y="-15" type="curve" smooth="yes"/>
      <point x="675" y="-15"/>
      <point x="791" y="50"/>
      <point x="879" y="137" type="curve"/>
      <point x="851" y="169" type="line"/>
      <point x="778" y="88"/>
      <point x="668" y="31"/>
      <point x="535" y="31" type="curve" smooth="yes"/>
      <point x="345" y="32"/>
      <point x="210" y="183"/>
      <point x="202" y="394" type="curve"/>
      <point x="879" y="394" type="line"/>
      <point x="879" y="645"/>
      <point x="720" y="820"/>
      <point x="505" y="820" type="curve" smooth="yes"/>
      <point x="269" y="820"/>
      <point x="109" y="645"/>
      <point x="109" y="405" type="curve" smooth="yes"/>
      <point x="109" y="161"/>
      <point x="287" y="-15"/>
    </contour>
    <contour>
      <point x="203" y="433" type="line"/>
      <point x="210" y="639"/>
      <point x="334" y="786"/>
      <point x="512" y="786" type="curve" smooth="yes"/>
      <point x="677" y="786"/>
      <point x="813" y="638"/>
      <point x="824" y="433" type="curve"/>
    </contour>
  </outline>
</glyph>
<glyph name="product" format="1">
  <advance width="1305"/>
  <unicode hex="220F"/>
  <outline>
    <contour>
      <point x="116" y="0" type="line"/>
      <point x="454" y="0" type="line"/>
      <point x="454" y="36" type="line"/>
      <point x="306" y="36" type="line"/>
      <point x="306" y="1117" type="line"/>
      <point x="999" y="1117" type="line"/>
      <point x="999" y="36" type="line"/>
      <point x="851" y="36" type="line"/>
      <point x="851" y="0" type="line"/>
      <point x="1189" y="0" type="line"/>
      <point x="1189" y="36" type="line"/>
      <point x="1041" y="36" type="line"/>
      <point x="1041" y="1117" type="line"/>
      <point x="1189" y="1117" type="line"/>
      <point x="1189" y="1152" type="line"/>
      <point x="116" y="1152" type="line"/>
      <point x="116" y="1117" type="line"/>
      <point x="264" y="1117" type="line"/>
      <point x="264" y="36" type="line"/>
      <point x="116" y="36" type="line"/>
    </contour>
  </outline>
</glyph>
<glyph name="summation" format="1">
  <advance width="1212"/>
  <unicode hex="2211"/>
  <outline>
    <contour>
      <point x="119" y="0" type="line"/>
      <point x="1062" y="0" type="line"/>
      <point x="1062" y="362" type="line"/>
      <point x="1022" y="362" type="line"/>
      <point x="1022" y="34" type="line"/>
      <point x="314" y="34" type="line"/>
      <point x="710" y="586" type="line"/>
      <point x="710" y="617" type="line"/>
      <point x="319" y="1118" type="line"/>
      <point x="996" y="1118" type="line"/>
      <point x="996" y="796" type="line"/>
      <point x="1034" y="796" type="line"/>
      <point x="1034" y="1152" type="line"/>
      <point x="119" y="1152" type="line"/>
      <point x="119" y="1118" type="line"/>
      <point x="274" y="1118" type="line"/>
      <point x="673" y="601" type="line"/>
      <point x="265" y="34" type="line"/>
      <point x="119" y="34" type="line"/>
    </contour>
  </outline>
</glyph>
<glyph name="minus" format="1">
  <advance width="912"/>
  <unicode hex="2212"/>
  <outline>
    <contour>
      <point x="100" y="569" type="line"/>
      <point x="812" y="569" type="line"/>
      <point x="812" y="616" type="line"/>
      <point x="100" y="616" type="line"/>
    </contour>
  </outline>
</glyph>
<glyph name="infinity" format="1">
  <advance width="1244"/>
  <unicode hex="221E"/>
  <outline>
    <contour>
      <point x="872" y="278" type="curve" smooth="yes"/>
      <point x="980" y="278"/>
      <point x="1107" y="362"/>
      <point x="1107" y="539" type="curve" smooth="yes"/>
      <point x="1107" y="720"/>
      <point x="985" y="802"/>
      <point x="873" y="802" type="curve" smooth="yes"/>
      <point x="764" y="802"/>
      <point x="679" y="735"/>
      <point x="619" y="624" type="curve"/>
      <point x="553" y="754"/>
      <point x="448" y="805"/>
      <point x="376" y="805" type="curve" smooth="yes"/>
      <point x="227" y="805"/>
      <point x="137" y="680"/>
      <point x="137" y="544" type="curve" smooth="yes"/>
      <point x="137" y="405"/>
      <point x="209" y="283"/>
      <point x="376" y="283" type="curve" smooth="yes"/>
      <point x="464" y="283"/>
      <point x="556" y="332"/>
      <point x="628" y="464" type="curve"/>
      <point x="695" y="321"/>
      <point x="783" y="278"/>
    </contour>
    <contour>
      <point x="368" y="315" type="curve" smooth="yes"/>
      <point x="252" y="315"/>
      <point x="192" y="414"/>
      <point x="192" y="543" type="curve" smooth="yes"/>
      <point x="192" y="646"/>
      <point x="244" y="772"/>
      <point x="366" y="772" type="curve" smooth="yes"/>
      <point x="463" y="772"/>
      <point x="543" y="688"/>
      <point x="606" y="544" type="curve"/>
      <point x="531" y="383"/>
      <point x="456" y="315"/>
    </contour>
    <contour>
      <point x="877" y="312" type="curve" smooth="yes"/>
      <point x="775" y="312"/>
      <point x="711" y="374"/>
      <point x="637" y="539" type="curve"/>
      <point x="707" y="690"/>
      <point x="779" y="767"/>
      <point x="876" y="767" type="curve" smooth="yes"/>
      <point x="982" y="767"/>
      <point x="1051" y="668"/>
      <point x="1051" y="541" type="curve" smooth="yes"/>
      <point x="1051" y="400"/>
      <point x="979" y="312"/>
    </contour>
  </outline>
</glyph>
<glyph name="lozenge" format="1">
  <advance width="948"/>
  <unicode hex="25CA"/>
  <outline>
    <contour>
      <point x="455" y="-32" type="line"/>
      <point x="494" y="-32" type="line"/>
      <point x="910" y="630" type="line"/>
      <point x="494" y="1295" type="line"/>
      <point x="455" y="1295" type="line"/>
      <point x="38" y="628" type="line"/>
    </contour>
    <contour>
      <point x="477" y="7" type="line"/>
      <point x="103" y="630" type="line"/>
      <point x="477" y="1254" type="line"/>
      <point x="851" y="630" type="line"/>
    </contour>
  </outline>
</glyph>
<glyph name="uniFB00" format="1">
  <advance width="1342"/>
  <unicode hex="FB00"/>
  <outline>
    <contour>
      <point x="1119" y="760" type="line"/>
      <point x="1119" y="805" type="line"/>
      <point x="886" y="805" type="line"/>
      <point x="886" y="1030" type="line" smooth="yes"/>
      <point x="886" y="1106"/>
      <point x="939" y="1147"/>
      <point x="986" y="1147" type="curve" smooth="yes"/>
      <point x="1035" y="1147"/>
      <point x="1091" y="1133"/>
      <point x="1102" y="1040" type="curve"/>
      <point x="1145" y="1058" type="line"/>
      <point x="1133" y="1167"/>
      <point x="1056" y="1195"/>
      <point x="985" y="1195" type="curve" smooth="yes"/>
      <point x="909" y="1195"/>
      <point x="827" y="1137"/>
      <point x="827" y="1025" type="curve" smooth="yes"/>
      <point x="827" y="805" type="line"/>
      <point x="324" y="804" type="line"/>
      <point x="324" y="1027" type="line" smooth="yes"/>
      <point x="324" y="1107"/>
      <point x="363" y="1149"/>
      <point x="428" y="1149" type="curve" smooth="yes"/>
      <point x="493" y="1149"/>
      <point x="528" y="1113"/>
      <point x="537" y="1040" type="curve"/>
      <point x="582" y="1058" type="line"/>
      <point x="574" y="1147"/>
      <point x="518" y="1195"/>
      <point x="426" y="1195" type="curve" smooth="yes"/>
      <point x="320" y="1195"/>
      <point x="261" y="1133"/>
      <point x="261" y="1028" type="curve" smooth="yes"/>
      <point x="261" y="804" type="line"/>
      <point x="106" y="804" type="line"/>
      <point x="106" y="759" type="line"/>
      <point x="261" y="759" type="line"/>
      <point x="261" y="45" type="line"/>
      <point x="111" y="45" type="line"/>
      <point x="111" y="0" type="line"/>
      <point x="513" y="0" type="line"/>
      <point x="513" y="45" type="line"/>
      <point x="324" y="45" type="line"/>
      <point x="324" y="759" type="line"/>
      <point x="827" y="760" type="line"/>
      <point x="827" y="45" type="line"/>
      <point x="674" y="45" type="line"/>
      <point x="674" y="0" type="line"/>
      <point x="1078" y="0" type="line"/>
      <point x="1078" y="45" type="line"/>
      <point x="886" y="45" type="line"/>
      <point x="886" y="760" type="line"/>
    </contour>
  </outline>
</glyph>
<glyph name="fl" format="1">
  <advance width="1223"/>
  <unicode hex="FB02"/>
  <outline>
    <contour>
      <point x="114" y="0" type="line"/>
      <point x="528" y="0" type="line"/>
      <point x="528" y="34" type="line"/>
      <point x="326" y="34" type="line"/>
      <point x="326" y="770" type="line"/>
      <point x="545" y="770" type="line"/>
      <point x="545" y="804" type="line"/>
      <point x="326" y="804" type="line"/>
      <point x="326" y="967" type="line" smooth="yes"/>
      <point x="326" y="1113"/>
      <point x="450" y="1204"/>
      <point x="648" y="1204" type="curve" smooth="yes"/>
      <point x="788" y="1204"/>
      <point x="876" y="1174"/>
      <point x="876" y="1127" type="curve" smooth="yes"/>
      <point x="876" y="34" type="line"/>
      <point x="876" y="0" type="line"/>
      <point x="1127" y="0" type="line"/>
      <point x="1127" y="34" type="line"/>
      <point x="920" y="34" type="line"/>
      <point x="920" y="1120" type="line" smooth="yes"/>
      <point x="920" y="1194"/>
      <point x="815" y="1240"/>
      <point x="648" y="1240" type="curve" smooth="yes"/>
      <point x="423" y="1240"/>
      <point x="282" y="1132"/>
      <point x="282" y="959" type="curve" smooth="yes"/>
      <point x="282" y="804" type="line"/>
      <point x="109" y="804" type="line"/>
      <point x="109" y="770" type="line"/>
      <point x="282" y="770" type="line"/>
      <point x="282" y="34" type="line"/>
      <point x="114" y="34" type="line"/>
    </contour>
  </outline>
</glyph>
<glyph name="ffl" format="1">
  <advance width="1801"/>
  <unicode hex="FB04"/>
  <outline>
    <contour>
      <point x="860" y="804" type="line"/>
      <point x="298" y="804" type="line"/>
      <point x="298" y="1011" type="line" smooth="yes"/>
      <point x="298" y="1111"/>
      <point x="399" y="1173"/>
      <point x="560" y="1173" type="curve" smooth="yes"/>
      <point x="656.897" y="1173"/>
      <point x="781.022" y="1134.5"/>
      <point x="884.158" y="1072.98" type="curve"/>
      <point x="868.325" y="1039.24"/>
      <point x="860" y="1001.04"/>
      <point x="860" y="959" type="curve" smooth="yes"/>
    </contour>
    <contour>
      <point x="100" y="0" type="line"/>
      <point x="491" y="0" type="line"/>
      <point x="491" y="34" type="line"/>
      <point x="298" y="34" type="line"/>
      <point x="298" y="770" type="line"/>
      <point x="860" y="770" type="line"/>
      <point x="860" y="34" type="line"/>
      <point x="692" y="34" type="line"/>
      <point x="692" y="0" type="line"/>
      <point x="1106" y="0" type="line"/>
      <point x="1106" y="34" type="line"/>
      <point x="904" y="34" type="line"/>
      <point x="904" y="770" type="line"/>
      <point x="1123" y="770" type="line"/>
      <point x="1123" y="804" type="line"/>
      <point x="904" y="804" type="line"/>
      <point x="904" y="967" type="line" smooth="yes"/>
      <point x="904" y="1113"/>
      <point x="1028" y="1204"/>
      <point x="1226" y="1204" type="curve" smooth="yes"/>
      <point x="1366" y="1204"/>
      <point x="1454" y="1174"/>
      <point x="1454" y="1127" type="curve" smooth="yes"/>
      <point x="1454" y="0" type="line"/>
      <point x="1705" y="0" type="line"/>
      <point x="1705" y="34" type="line"/>
      <point x="1498" y="34" type="line"/>
      <point x="1498" y="1120" type="line" smooth="yes"/>
      <point x="1498" y="1194"/>
      <point x="1393" y="1240"/>
      <point x="1226" y="1240" type="curve" smooth="yes"/>
      <point x="1072.61" y="1240"/>
      <point x="958.259" y="1189.81"/>
      <point x="901.009" y="1103.04" type="curve"/>
      <point x="792.277" y="1167.63"/>
      <point x="661.131" y="1208"/>
      <point x="556" y="1208" type="curve" smooth="yes"/>
      <point x="370" y="1208"/>
      <point x="254" y="1130"/>
      <point x="254" y="1005" type="curve" smooth="yes"/>
      <point x="254" y="804" type="line"/>
      <point x="95" y="804" type="line"/>
      <point x="95" y="770" type="line"/>
      <point x="254" y="770" type="line"/>
      <point x="254" y="34" type="line"/>
      <point x="100" y="34" type="line"/>
    </contour>
  </outline>
</glyph>
<glyph name="uniFB04" format="1">
  <advance width="1804"/>
  <unicode hex="FB04"/>
  <outline>
    <contour>
      <point x="97" y="0" type="line"/>
      <point x="506" y="0" type="line"/>
      <point x="506" y="45" type="line"/>
      <point x="311" y="45" type="line"/>
      <point x="311" y="759" type="line"/>
      <point x="752" y="759" type="line"/>
      <point x="752" y="804" type="line"/>
      <point x="311" y="804" type="line"/>
      <point x="311" y="1005" type="line" smooth="yes"/>
      <point x="311" y="1105"/>
      <point x="413" y="1165"/>
      <point x="570" y="1165" type="curve" smooth="yes"/>
      <point x="671" y="1165"/>
      <point x="799" y="1124"/>
      <point x="899" y="1058" type="curve"/>
      <point x="937" y="1085" type="line"/>
      <point x="827" y="1164"/>
      <point x="682" y="1211"/>
      <point x="565" y="1211" type="curve" smooth="yes"/>
      <point x="376" y="1211"/>
      <point x="252" y="1131"/>
      <point x="252" y="1000" type="curve" smooth="yes"/>
      <point x="252" y="804" type="line"/>
      <point x="93" y="804" type="line"/>
      <point x="93" y="759" type="line"/>
      <point x="252" y="759" type="line"/>
      <point x="252" y="45" type="line"/>
      <point x="97" y="45" type="line"/>
    </contour>
    <component base="uniFB02" xOffset="592"/>
  </outline>
</glyph>
<glyph name="uniFB04" format="1">
  <advance width="1787"/>
  <unicode hex="FB04"/>
  <outline>
    <contour>
      <point x="100" y="0" type="line"/>
      <point x="491" y="0" type="line"/>
      <point x="491" y="34" type="line"/>
      <point x="298" y="34" type="line"/>
      <point x="298" y="770" type="line"/>
      <point x="741" y="770" type="line"/>
      <point x="741" y="804" type="line"/>
      <point x="298" y="804" type="line"/>
      <point x="298" y="1011" type="line" smooth="yes"/>
      <point x="298" y="1111"/>
      <point x="399" y="1173"/>
      <point x="560" y="1173" type="curve" smooth="yes"/>
      <point x="660" y="1173"/>
      <point x="789" y="1132"/>
      <point x="894" y="1067" type="curve"/>
      <point x="919" y="1092" type="line"/>
      <point x="807" y="1163"/>
      <point x="667" y="1208"/>
      <point x="556" y="1208" type="curve" smooth="yes"/>
      <point x="370" y="1208"/>
      <point x="254" y="1130"/>
      <point x="254" y="1005" type="curve" smooth="yes"/>
      <point x="254" y="804" type="line"/>
      <point x="95" y="804" type="line"/>
      <point x="95" y="770" type="line"/>
      <point x="254" y="770" type="line"/>
      <point x="254" y="34" type="line"/>
      <point x="100" y="34" type="line"/>
    </contour>
    <contour>
      <point x="692" y="0" type="line"/>
      <point x="1106" y="0" type="line"/>
      <point x="1106" y="34" type="line"/>
      <point x="904" y="34" type="line"/>
      <point x="904" y="770" type="line"/>
      <point x="1123" y="770" type="line"/>
      <point x="1123" y="804" type="line"/>
      <point x="904" y="804" type="line"/>
      <point x="904" y="967" type="line" smooth="yes"/>
      <point x="904" y="1113"/>
      <point x="1028" y="1204"/>
      <point x="1226" y="1204" type="curve" smooth="yes"/>
      <point x="1366" y="1204"/>
      <point x="1454" y="1174"/>
      <point x="1454" y="1127" type="curve" smooth="yes"/>
      <point x="1454" y="34" type="line"/>
      <point x="1454" y="0" type="line"/>
      <point x="1705" y="0" type="line"/>
      <point x="1705" y="34" type="line"/>
      <point x="1498" y="34" type="line"/>
      <point x="1498" y="1120" type="line" smooth="yes"/>
      <point x="1498" y="1194"/>
      <point x="1393" y="1240"/>
      <point x="1226" y="1240" type="curve" smooth="yes"/>
      <point x="1001" y="1240"/>
      <point x="860" y="1132"/>
      <point x="860" y="959" type="curve" smooth="yes"/>
      <point x="860" y="804" type="line"/>
      <point x="687" y="804" type="line"/>
      <point x="687" y="770" type="line"/>
      <point x="860" y="770" type="line"/>
      <point x="860" y="34" type="line"/>
      <point x="692" y="34" type="line"/>
    </contour>
  </outline>
</glyph>
<glyph name="f_j" format="1">
  <advance width="1067"/>
  <outline>
    <contour>
      <point x="896" y="804" type="line"/>
      <point x="336" y="804" type="line"/>
      <point x="336" y="947" type="line" smooth="yes"/>
      <point x="336" y="1086"/>
      <point x="456" y="1168"/>
      <point x="645" y="1168" type="curve" smooth="yes"/>
      <point x="710" y="1168"/>
      <point x="810" y="1153"/>
      <point x="833" y="1103" type="curve"/>
      <point x="807" y="1097"/>
      <point x="796" y="1075"/>
      <point x="796" y="1054" type="curve" smooth="yes"/>
      <point x="796" y="1024"/>
      <point x="823" y="1004"/>
      <point x="860" y="1004" type="curve" smooth="yes"/>
      <point x="896" y="1004"/>
      <point x="917" y="1029"/>
      <point x="917" y="1065" type="curve" smooth="yes"/>
      <point x="917" y="1155"/>
      <point x="809" y="1211"/>
      <point x="648" y="1211" type="curve" smooth="yes"/>
      <point x="423" y="1211"/>
      <point x="276" y="1113"/>
      <point x="276" y="945" type="curve" smooth="yes"/>
      <point x="276" y="804" type="line"/>
      <point x="108" y="804" type="line"/>
      <point x="108" y="759" type="line"/>
      <point x="276" y="759" type="line"/>
      <point x="276" y="45" type="line"/>
      <point x="113" y="45" type="line"/>
      <point x="113" y="0" type="line"/>
      <point x="534" y="0" type="line"/>
      <point x="534" y="45" type="line"/>
      <point x="336" y="45" type="line"/>
      <point x="336" y="759" type="line"/>
      <point x="834" y="759" type="line"/>
      <point x="834" y="-36" type="line" smooth="yes"/>
      <point x="834" y="-150"/>
      <point x="837" y="-206"/>
      <point x="698" y="-206" type="curve" smooth="yes"/>
      <point x="633" y="-206" type="line"/>
      <point x="633" y="-250" type="line"/>
      <point x="707" y="-250" type="line" smooth="yes"/>
      <point x="916" y="-250"/>
      <point x="896" y="-109"/>
      <point x="896" y="-26" type="curve" smooth="yes"/>
    </contour>
  </outline>
</glyph>
<glyph name="ff" format="1">
  <advance width="1226"/>
  <outline>
    <contour>
      <point x="668" y="0" type="line"/>
      <point x="1059" y="0" type="line"/>
      <point x="1059" y="34" type="line"/>
      <point x="866" y="34" type="line"/>
      <point x="866" y="771" type="line"/>
      <point x="1105" y="771" type="line"/>
      <point x="1105" y="805" type="line"/>
      <point x="866" y="805" type="line"/>
      <point x="866" y="1039" type="line" smooth="yes"/>
      <point x="866" y="1112"/>
      <point x="921" y="1153"/>
      <point x="967" y="1153" type="curve" smooth="yes"/>
      <point x="1015" y="1153"/>
      <point x="1075" y="1142"/>
      <point x="1086" y="1047" type="curve"/>
      <point x="1117" y="1062" type="line"/>
      <point x="1105" y="1165"/>
      <point x="1033" y="1191"/>
      <point x="967" y="1191" type="curve" smooth="yes"/>
      <point x="904" y="1191"/>
      <point x="822" y="1139"/>
      <point x="822" y="1033" type="curve" smooth="yes"/>
      <point x="822" y="805" type="line"/>
      <point x="511" y="805" type="line"/>
      <point x="511" y="771" type="line"/>
      <point x="822" y="771" type="line"/>
      <point x="822" y="34" type="line"/>
      <point x="668" y="34" type="line"/>
    </contour>
    <component base="f"/>
  </outline>
</glyph>
